<svg xmlns="http://www.w3.org/2000/svg" xmlns:xlink="http://www.w3.org/1999/xlink" width="504" zoomAndPan="magnify" viewBox="0 0 378 212.249992" height="283" preserveAspectRatio="xMidYMid meet" version="1.0"><defs><g/><clipPath id="2b1919e84b"><path d="M 111.449219 48.734375 L 120.664062 48.734375 L 120.664062 55.21875 L 111.449219 55.21875 Z M 111.449219 48.734375 " clip-rule="nonzero"/></clipPath><clipPath id="2c3fe47a3c"><path d="M 112.136719 53.683594 C 117.742188 51.664062 119.011719 48.675781 119.683594 48.75 C 120.058594 48.75 120.582031 49.570312 120.507812 49.796875 C 120.433594 50.019531 119.683594 50.246094 119.460938 50.09375 C 119.238281 49.945312 119.085938 49.125 119.238281 49.046875 C 119.386719 48.898438 120.433594 49.125 120.582031 49.496094 C 120.804688 49.945312 119.984375 51.289062 119.386719 51.964844 C 118.789062 52.710938 118.117188 53.308594 117.21875 53.757812 C 115.875 54.429688 113.035156 55.402344 112.136719 55.175781 C 111.761719 55.027344 111.464844 54.652344 111.464844 54.429688 C 111.464844 54.207031 112.136719 53.683594 112.136719 53.683594 " clip-rule="nonzero"/></clipPath><clipPath id="f797e8eb1b"><path d="M 0.449219 0.734375 L 9.664062 0.734375 L 9.664062 7.21875 L 0.449219 7.21875 Z M 0.449219 0.734375 " clip-rule="nonzero"/></clipPath><clipPath id="ae71697cd5"><path d="M 1.136719 5.683594 C 6.742188 3.664062 8.011719 0.675781 8.683594 0.75 C 9.058594 0.75 9.582031 1.570312 9.507812 1.796875 C 9.433594 2.019531 8.683594 2.246094 8.460938 2.09375 C 8.238281 1.945312 8.085938 1.125 8.238281 1.046875 C 8.386719 0.898438 9.433594 1.125 9.582031 1.496094 C 9.804688 1.945312 8.984375 3.289062 8.386719 3.964844 C 7.789062 4.710938 7.117188 5.308594 6.21875 5.757812 C 4.875 6.429688 2.035156 7.402344 1.136719 7.175781 C 0.761719 7.027344 0.464844 6.652344 0.464844 6.429688 C 0.464844 6.207031 1.136719 5.683594 1.136719 5.683594 " clip-rule="nonzero"/></clipPath><clipPath id="fa4161634b"><rect x="0" width="10" y="0" height="8"/></clipPath><clipPath id="f7c87839ab"><path d="M 248.617188 50.480469 L 256.507812 50.480469 L 256.507812 57.953125 L 248.617188 57.953125 Z M 248.617188 50.480469 " clip-rule="nonzero"/></clipPath><clipPath id="4ac1c7fbbd"><path d="M 249.949219 50.691406 C 254.210938 56.449219 256.300781 56.523438 256.453125 56.972656 C 256.527344 57.269531 255.78125 57.867188 255.554688 57.867188 C 255.332031 57.792969 254.957031 56.972656 255.03125 56.746094 C 255.179688 56.523438 256.003906 56.371094 256.152344 56.523438 C 256.300781 56.671875 256.078125 57.71875 255.628906 57.867188 C 254.957031 58.167969 252.492188 56.894531 251.371094 55.851562 C 250.175781 54.804688 248.753906 52.410156 248.679688 51.441406 C 248.605469 50.992188 248.828125 50.617188 249.054688 50.542969 C 249.203125 50.394531 249.949219 50.691406 249.949219 50.691406 " clip-rule="nonzero"/></clipPath><clipPath id="4430fd465b"><path d="M 0.617188 0.480469 L 8.507812 0.480469 L 8.507812 7.953125 L 0.617188 7.953125 Z M 0.617188 0.480469 " clip-rule="nonzero"/></clipPath><clipPath id="58daed3ce1"><path d="M 1.949219 0.691406 C 6.210938 6.449219 8.300781 6.523438 8.453125 6.972656 C 8.527344 7.269531 7.78125 7.867188 7.554688 7.867188 C 7.332031 7.792969 6.957031 6.972656 7.03125 6.746094 C 7.179688 6.523438 8.003906 6.371094 8.152344 6.523438 C 8.300781 6.671875 8.078125 7.71875 7.628906 7.867188 C 6.957031 8.167969 4.492188 6.894531 3.371094 5.851562 C 2.175781 4.804688 0.753906 2.410156 0.679688 1.441406 C 0.605469 0.992188 0.828125 0.617188 1.054688 0.542969 C 1.203125 0.394531 1.949219 0.691406 1.949219 0.691406 " clip-rule="nonzero"/></clipPath><clipPath id="6d57e6dd04"><rect x="0" width="9" y="0" height="8"/></clipPath><clipPath id="760ab36167"><path d="M 173.648438 69.148438 L 182.183594 69.148438 L 182.183594 71.996094 L 173.648438 71.996094 Z M 173.648438 69.148438 " clip-rule="nonzero"/></clipPath><clipPath id="4e77859572"><path d="M 174.839844 69.300781 C 178.277344 70.648438 180.96875 69.675781 181.714844 70.050781 C 182.015625 70.199219 182.238281 70.574219 182.164062 70.796875 C 182.164062 71.019531 181.566406 71.542969 181.34375 71.46875 C 181.117188 71.394531 180.667969 70.574219 180.820312 70.347656 C 180.894531 70.125 181.867188 70.050781 182.015625 70.273438 C 182.164062 70.421875 182.164062 71.097656 181.867188 71.320312 C 181.269531 71.917969 178.203125 72.140625 176.785156 71.84375 C 175.585938 71.695312 174.09375 70.945312 173.792969 70.347656 C 173.570312 69.976562 173.644531 69.375 173.867188 69.226562 C 174.09375 69.078125 174.839844 69.300781 174.839844 69.300781 " clip-rule="nonzero"/></clipPath><clipPath id="d3565e9859"><path d="M 0.648438 0.148438 L 9.183594 0.148438 L 9.183594 2.996094 L 0.648438 2.996094 Z M 0.648438 0.148438 " clip-rule="nonzero"/></clipPath><clipPath id="8190897e26"><path d="M 1.839844 0.300781 C 5.277344 1.648438 7.96875 0.675781 8.714844 1.050781 C 9.015625 1.199219 9.238281 1.574219 9.164062 1.796875 C 9.164062 2.019531 8.566406 2.542969 8.34375 2.46875 C 8.117188 2.394531 7.667969 1.574219 7.820312 1.347656 C 7.894531 1.125 8.867188 1.050781 9.015625 1.273438 C 9.164062 1.421875 9.164062 2.097656 8.867188 2.320312 C 8.269531 2.917969 5.203125 3.140625 3.785156 2.84375 C 2.585938 2.695312 1.09375 1.945312 0.792969 1.347656 C 0.570312 0.976562 0.644531 0.375 0.867188 0.226562 C 1.09375 0.078125 1.839844 0.300781 1.839844 0.300781 " clip-rule="nonzero"/></clipPath><clipPath id="a647b04c74"><rect x="0" width="10" y="0" height="3"/></clipPath><clipPath id="daab462739"><path d="M 0.753906 18 L 22 18 L 22 50 L 0.753906 50 Z M 0.753906 18 " clip-rule="nonzero"/></clipPath><clipPath id="c20a7e97dc"><path d="M 3.40625 18.71875 L 21.414062 20.261719 L 18.867188 50.015625 L 0.855469 48.472656 Z M 3.40625 18.71875 " clip-rule="nonzero"/></clipPath><clipPath id="de2015430b"><path d="M 10 1 L 20 1 L 20 20 L 10 20 Z M 10 1 " clip-rule="nonzero"/></clipPath><clipPath id="270bee2e58"><path d="M 3.40625 0.71875 L 21.414062 2.261719 L 18.867188 32.015625 L 0.855469 30.472656 Z M 3.40625 0.71875 " clip-rule="nonzero"/></clipPath><clipPath id="704b99c8f3"><path d="M 21.304688 2.25 L 3.292969 0.707031 L 0.746094 30.464844 L 18.753906 32.007812 Z M 21.304688 2.25 " clip-rule="nonzero"/></clipPath><clipPath id="8e4bf2afa6"><path d="M 2 12 L 14 12 L 14 25 L 2 25 Z M 2 12 " clip-rule="nonzero"/></clipPath><clipPath id="f887d04360"><path d="M 3.40625 0.71875 L 21.414062 2.261719 L 18.867188 32.015625 L 0.855469 30.472656 Z M 3.40625 0.71875 " clip-rule="nonzero"/></clipPath><clipPath id="99ecaa0ede"><path d="M 21.304688 2.25 L 3.292969 0.707031 L 0.746094 30.464844 L 18.753906 32.007812 Z M 21.304688 2.25 " clip-rule="nonzero"/></clipPath><clipPath id="8499f8e93d"><path d="M 1 26 L 12 26 L 12 31 L 1 31 Z M 1 26 " clip-rule="nonzero"/></clipPath><clipPath id="9519044654"><path d="M 3.40625 0.71875 L 21.414062 2.261719 L 18.867188 32.015625 L 0.855469 30.472656 Z M 3.40625 0.71875 " clip-rule="nonzero"/></clipPath><clipPath id="133836a010"><path d="M 21.304688 2.25 L 3.292969 0.707031 L 0.746094 30.464844 L 18.753906 32.007812 Z M 21.304688 2.25 " clip-rule="nonzero"/></clipPath><clipPath id="c0238a0c3b"><rect x="0" width="22" y="0" height="32"/></clipPath><clipPath id="a1b822bb25"><path d="M 336 78 L 356.855469 78 L 356.855469 110 L 336 110 Z M 336 78 " clip-rule="nonzero"/></clipPath><clipPath id="4d052d5366"><path d="M 338.835938 78.820312 L 356.847656 80.363281 L 354.296875 110.117188 L 336.289062 108.574219 Z M 338.835938 78.820312 " clip-rule="nonzero"/></clipPath><clipPath id="fbd752fbcf"><path d="M 1 12 L 11 12 L 11 31 L 1 31 Z M 1 12 " clip-rule="nonzero"/></clipPath><clipPath id="11479d9aaf"><path d="M 2.835938 0.820312 L 20.847656 2.363281 L 18.296875 32.117188 L 0.289062 30.574219 Z M 2.835938 0.820312 " clip-rule="nonzero"/></clipPath><clipPath id="f8ef00b8ee"><path d="M 0.320312 30.234375 L 18.328125 31.777344 L 20.875 2.019531 L 2.867188 0.480469 Z M 0.320312 30.234375 " clip-rule="nonzero"/></clipPath><clipPath id="a38ad41802"><path d="M 8 8 L 20 8 L 20 21 L 8 21 Z M 8 8 " clip-rule="nonzero"/></clipPath><clipPath id="0c8dc88ea2"><path d="M 2.835938 0.820312 L 20.847656 2.363281 L 18.296875 32.117188 L 0.289062 30.574219 Z M 2.835938 0.820312 " clip-rule="nonzero"/></clipPath><clipPath id="0b2b48c634"><path d="M 0.320312 30.234375 L 18.328125 31.777344 L 20.875 2.019531 L 2.867188 0.480469 Z M 0.320312 30.234375 " clip-rule="nonzero"/></clipPath><clipPath id="0412438e8c"><path d="M 9 2 L 20.855469 2 L 20.855469 6 L 9 6 Z M 9 2 " clip-rule="nonzero"/></clipPath><clipPath id="b7f727a3fc"><path d="M 2.835938 0.820312 L 20.847656 2.363281 L 18.296875 32.117188 L 0.289062 30.574219 Z M 2.835938 0.820312 " clip-rule="nonzero"/></clipPath><clipPath id="b5678952cc"><path d="M 0.320312 30.234375 L 18.328125 31.777344 L 20.875 2.019531 L 2.867188 0.480469 Z M 0.320312 30.234375 " clip-rule="nonzero"/></clipPath><clipPath id="a056f2770b"><rect x="0" width="21" y="0" height="32"/></clipPath><clipPath id="cbd6491d9f"><rect x="0" width="357" y="0" height="121"/></clipPath></defs><path fill="#545454" d="M 200.046875 45.125 C 208.933594 39.308594 219.46875 75.171875 230.09375 75.171875 C 240.714844 75.171875 249.894531 39.554688 260.136719 45.125 C 268.136719 49.480469 233.273438 76.203125 247.53125 90.457031 C 254.695312 97.621094 290.96875 101.636719 288.714844 110.238281 C 286.015625 120.511719 253.261719 105.417969 246.347656 113.480469 C 239.429688 121.542969 253.40625 138.84375 243.664062 143.070312 C 232.722656 147.816406 230.039062 122.296875 225.851562 102.105469 C 220.972656 78.582031 191.527344 50.707031 200.046875 45.125 " fill-opacity="1" fill-rule="nonzero"/><path fill="#545454" d="M 230.09375 70.066406 C 225.871094 70.066406 222.453125 66.09375 222.453125 61.191406 C 222.453125 56.289062 225.871094 52.316406 230.09375 52.316406 C 234.3125 52.316406 237.730469 56.289062 237.730469 61.191406 C 237.730469 66.09375 234.3125 70.066406 230.09375 70.066406 " fill-opacity="1" fill-rule="nonzero"/><path fill="#38b6ff" d="M 178.472656 61.679688 C 186.457031 62.109375 176.878906 88.5625 183.324219 93.296875 C 189.769531 98.027344 211.203125 80.5 214.9375 88.441406 C 217.855469 94.648438 184.796875 95.339844 187.097656 110.339844 C 188.257812 117.875 208.484375 136.46875 203.28125 140.683594 C 197.070312 145.71875 183.914062 121.96875 176.125 123.78125 C 168.339844 125.59375 169.113281 142.320312 161.316406 140.546875 C 152.566406 138.554688 162.304688 121.871094 168.753906 107.75 C 176.269531 91.304688 170.816406 61.273438 178.472656 61.679688 " fill-opacity="1" fill-rule="nonzero"/><path fill="#38b6ff" d="M 185.597656 90.195312 C 183.039062 88.316406 182.730469 84.382812 184.914062 81.410156 C 187.097656 78.433594 190.941406 77.546875 193.503906 79.425781 C 196.0625 81.304688 196.371094 85.238281 194.1875 88.210938 C 192.003906 91.1875 188.15625 92.074219 185.597656 90.195312 " fill-opacity="1" fill-rule="nonzero"/><path fill="#000000" d="M 170.394531 45.128906 C 161.507812 39.308594 150.972656 75.171875 140.347656 75.171875 C 129.726562 75.171875 120.546875 39.554688 110.304688 45.128906 C 102.304688 49.480469 137.164062 76.203125 122.910156 90.457031 C 115.746094 97.621094 79.46875 101.636719 81.730469 110.238281 C 84.425781 120.511719 117.179688 105.417969 124.09375 113.480469 C 131.011719 121.542969 117.035156 138.84375 126.78125 143.070312 C 137.714844 147.816406 140.402344 122.296875 144.589844 102.105469 C 149.46875 78.582031 178.914062 50.707031 170.394531 45.128906 " fill-opacity="1" fill-rule="nonzero"/><path fill="#000000" d="M 140.347656 70.066406 C 144.570312 70.066406 147.988281 66.09375 147.988281 61.191406 C 147.988281 56.289062 144.570312 52.316406 140.347656 52.316406 C 136.128906 52.316406 132.710938 56.289062 132.710938 61.191406 C 132.710938 66.09375 136.128906 70.066406 140.347656 70.066406 " fill-opacity="1" fill-rule="nonzero"/><path fill="#38b6ff" d="M 186.480469 0 L 192.175781 11.542969 L 204.914062 13.394531 L 195.695312 22.378906 L 197.871094 35.066406 L 186.480469 29.078125 L 175.085938 35.066406 L 177.261719 22.378906 L 168.042969 13.394531 L 180.78125 11.542969 L 186.480469 0 " fill-opacity="1" fill-rule="nonzero"/><path fill="#000000" d="M 151.167969 30.5 L 153.226562 34.675781 L 157.835938 35.34375 L 154.5 38.59375 L 155.289062 43.183594 L 151.167969 41.015625 L 147.042969 43.183594 L 147.832031 38.59375 L 144.496094 35.34375 L 149.105469 34.675781 L 151.167969 30.5 " fill-opacity="1" fill-rule="nonzero"/><path fill="#5170ff" d="M 184.898438 40.652344 L 186.957031 44.828125 L 191.566406 45.496094 L 188.230469 48.75 L 189.019531 53.335938 L 184.898438 51.171875 L 180.773438 53.335938 L 181.5625 48.75 L 178.226562 45.496094 L 182.835938 44.828125 L 184.898438 40.652344 " fill-opacity="1" fill-rule="nonzero"/><path fill="#5ce1e6" d="M 222.453125 35.066406 L 224.101562 38.410156 L 227.789062 38.945312 L 225.121094 41.546875 L 225.75 45.21875 L 222.453125 43.484375 L 219.152344 45.21875 L 219.78125 41.546875 L 217.113281 38.945312 L 220.800781 38.410156 L 222.453125 35.066406 " fill-opacity="1" fill-rule="nonzero"/><path fill="#5170ff" d="M 216.15625 27.210938 C 216.15625 29.128906 214.601562 30.683594 212.683594 30.683594 C 210.765625 30.683594 209.207031 29.128906 209.207031 27.210938 C 209.207031 25.292969 210.765625 23.734375 212.683594 23.734375 C 214.601562 23.734375 216.15625 25.292969 216.15625 27.210938 " fill-opacity="1" fill-rule="nonzero"/><path fill="#000000" d="M 244.679688 41.386719 C 244.679688 42.898438 243.453125 44.125 241.941406 44.125 C 240.425781 44.125 239.199219 42.898438 239.199219 41.386719 C 239.199219 39.871094 240.425781 38.644531 241.941406 38.644531 C 243.453125 38.644531 244.679688 39.871094 244.679688 41.386719 " fill-opacity="1" fill-rule="nonzero"/><path fill="#5ce1e6" d="M 165.378906 30.683594 C 165.378906 32.152344 164.1875 33.34375 162.71875 33.34375 C 161.246094 33.34375 160.054688 32.152344 160.054688 30.683594 C 160.054688 29.214844 161.246094 28.019531 162.71875 28.019531 C 164.1875 28.019531 165.378906 29.214844 165.378906 30.683594 " fill-opacity="1" fill-rule="nonzero"/><g clip-path="url(#2b1919e84b)"><g clip-path="url(#2c3fe47a3c)"><g transform="matrix(1, 0, 0, 1, 111, 48)"><g clip-path="url(#fa4161634b)"><g clip-path="url(#f797e8eb1b)"><g clip-path="url(#ae71697cd5)"><rect x="-194.16" width="544.32" fill="#0571d3" height="305.639988" y="-94.694998" fill-opacity="1"/></g></g></g></g></g></g><g clip-path="url(#f7c87839ab)"><g clip-path="url(#4ac1c7fbbd)"><g transform="matrix(1, 0, 0, 1, 248, 50)"><g clip-path="url(#6d57e6dd04)"><g clip-path="url(#4430fd465b)"><g clip-path="url(#58daed3ce1)"><rect x="-331.16" width="544.32" fill="#8aceff" height="305.639988" y="-96.694998" fill-opacity="1"/></g></g></g></g></g></g><g clip-path="url(#760ab36167)"><g clip-path="url(#4e77859572)"><g transform="matrix(1, 0, 0, 1, 173, 69)"><g clip-path="url(#a647b04c74)"><g clip-path="url(#d3565e9859)"><g clip-path="url(#8190897e26)"><rect x="-256.16" width="544.32" fill="#031d8c" height="305.639988" y="-115.694998" fill-opacity="1"/></g></g></g></g></g></g><g transform="matrix(1, 0, 0, 1, 9, 69)"><g clip-path="url(#cbd6491d9f)"><g fill="#001780" fill-opacity="1"><g transform="translate(19.37373, 100.269588)"><g><path d="M 6.382812 -25.046875 C 7.441406 -24.367188 9.339844 -23.433594 12.070312 -22.242188 C 14.429688 -21.210938 16.578125 -20.789062 18.507812 -20.980469 C 18.851562 -21.015625 19.121094 -21.066406 19.3125 -21.136719 C 19.347656 -21.152344 19.375 -21.164062 19.386719 -21.167969 C 19.355469 -21.152344 19.324219 -21.125 19.289062 -21.089844 C 19.160156 -20.972656 19.070312 -20.828125 19.019531 -20.660156 C 19.003906 -20.613281 18.996094 -20.574219 18.992188 -20.542969 C 18.992188 -20.558594 18.992188 -20.585938 18.988281 -20.628906 C 18.992188 -20.59375 19.003906 -20.554688 19.027344 -20.511719 C 19.035156 -20.5 19.039062 -20.496094 19.039062 -20.496094 C 19.019531 -20.515625 18.992188 -20.542969 18.953125 -20.574219 C 18.464844 -20.953125 17.40625 -21.433594 15.777344 -22.011719 C 13.75 -22.726562 12.214844 -23.300781 11.171875 -23.726562 C 10.03125 -24.199219 8.550781 -24.972656 6.734375 -26.050781 C 4.722656 -27.242188 3.121094 -28.570312 1.921875 -30.027344 L 4.5 -32.140625 L 1.976562 -29.96875 C -1.171875 -33.628906 -3.039062 -38.398438 -3.621094 -44.285156 C -4.226562 -50.441406 -2.453125 -55.855469 1.699219 -60.53125 C 5.785156 -65.125 11.382812 -67.777344 18.496094 -68.480469 C 23.019531 -68.925781 27.257812 -68.851562 31.21875 -68.25 C 33.421875 -67.917969 35.175781 -67.417969 36.484375 -66.746094 C 38.449219 -65.742188 39.597656 -64.332031 39.925781 -62.519531 L 39.949219 -62.386719 L 40.015625 -61.722656 C 40.261719 -59.222656 39.828125 -56.121094 38.71875 -52.421875 C 38.195312 -50.683594 37.730469 -49.308594 37.324219 -48.292969 C 36.742188 -46.839844 36.105469 -45.832031 35.417969 -45.269531 L 33.898438 -44.027344 L 32.078125 -44.75 C 28.613281 -46.121094 25.660156 -46.6875 23.21875 -46.449219 C 22.734375 -46.398438 22.34375 -46.324219 22.042969 -46.222656 C 21.953125 -46.1875 21.878906 -46.15625 21.820312 -46.125 L 21.8125 -46.125 C 21.90625 -46.207031 21.980469 -46.316406 22.027344 -46.453125 C 22.042969 -46.496094 22.050781 -46.53125 22.054688 -46.5625 C 22.050781 -46.542969 22.054688 -46.511719 22.058594 -46.464844 C 22.042969 -46.613281 22.003906 -46.746094 21.933594 -46.863281 C 21.917969 -46.894531 21.898438 -46.921875 21.882812 -46.9375 C 21.890625 -46.933594 21.902344 -46.921875 21.921875 -46.90625 C 22.199219 -46.664062 22.707031 -46.417969 23.441406 -46.164062 L 23.542969 -46.125 C 24.011719 -45.949219 24.691406 -45.699219 25.589844 -45.386719 C 26.53125 -45.054688 27.613281 -44.660156 28.835938 -44.210938 C 30.164062 -43.71875 31.59375 -43.078125 33.125 -42.292969 C 34.707031 -41.484375 36.410156 -40.386719 38.234375 -39.007812 C 42.429688 -35.769531 44.8125 -31.257812 45.382812 -25.46875 C 46.089844 -18.335938 44.660156 -12.253906 41.101562 -7.226562 C 37.445312 -2.0625 31.507812 0.992188 23.28125 1.9375 C 19.484375 2.316406 16.011719 2.335938 12.871094 2.007812 C 9.417969 1.644531 6.324219 0.566406 3.582031 -1.230469 C 0.402344 -3.3125 -1.359375 -6.089844 -1.703125 -9.5625 C -1.984375 -12.375 -1.746094 -15.214844 -1 -18.074219 C -0.1875 -21.167969 0.917969 -23.371094 2.3125 -24.675781 L 4.203125 -26.441406 Z M 2.789062 -19.433594 L 4.585938 -22.238281 L 6.863281 -19.804688 C 6.710938 -19.664062 6.527344 -19.367188 6.316406 -18.917969 C 6.007812 -18.265625 5.71875 -17.421875 5.449219 -16.382812 C 4.902344 -14.296875 4.726562 -12.238281 4.925781 -10.21875 C 5.0625 -8.859375 5.828125 -7.722656 7.230469 -6.804688 C 9.074219 -5.597656 11.183594 -4.871094 13.566406 -4.621094 C 16.257812 -4.335938 19.242188 -4.359375 22.519531 -4.679688 C 28.773438 -5.402344 33.152344 -7.535156 35.660156 -11.078125 C 38.265625 -14.753906 39.292969 -19.332031 38.753906 -24.8125 C 38.367188 -28.695312 36.859375 -31.652344 34.21875 -33.691406 C 32.699219 -34.835938 31.320312 -35.730469 30.082031 -36.363281 C 28.789062 -37.027344 27.601562 -37.558594 26.523438 -37.960938 C 25.335938 -38.398438 24.285156 -38.78125 23.378906 -39.097656 C 22.425781 -39.433594 21.6875 -39.703125 21.164062 -39.902344 L 22.355469 -43.011719 L 21.269531 -39.863281 C 17.640625 -41.113281 15.695312 -43.097656 15.425781 -45.8125 C 15.324219 -46.832031 15.429688 -47.785156 15.742188 -48.667969 C 16.082031 -49.632812 16.644531 -50.460938 17.429688 -51.144531 C 18.65625 -52.21875 20.367188 -52.863281 22.566406 -53.078125 C 26.078125 -53.425781 30.066406 -52.714844 34.535156 -50.945312 L 33.304688 -47.847656 L 31.191406 -50.421875 C 31.035156 -50.292969 30.90625 -50.160156 30.808594 -50.027344 L 30.800781 -50.023438 C 30.890625 -50.1875 31.003906 -50.4375 31.140625 -50.773438 C 31.472656 -51.605469 31.871094 -52.792969 32.335938 -54.335938 C 33.195312 -57.199219 33.542969 -59.441406 33.382812 -61.066406 L 33.328125 -61.597656 L 36.644531 -61.925781 L 33.367188 -61.335938 C 33.414062 -61.074219 33.511719 -60.863281 33.65625 -60.703125 L 33.667969 -60.683594 C 33.617188 -60.722656 33.542969 -60.765625 33.449219 -60.8125 C 32.785156 -61.15625 31.707031 -61.4375 30.222656 -61.664062 C 26.808594 -62.179688 23.121094 -62.242188 19.152344 -61.847656 C 13.769531 -61.316406 9.613281 -59.402344 6.679688 -56.101562 C 3.816406 -52.882812 2.59375 -49.160156 3.011719 -44.941406 C 3.457031 -40.453125 4.792969 -36.910156 7.027344 -34.316406 L 7.054688 -34.285156 L 7.078125 -34.253906 C 7.777344 -33.398438 8.796875 -32.574219 10.136719 -31.78125 C 11.671875 -30.867188 12.863281 -30.238281 13.703125 -29.890625 C 14.644531 -29.503906 16.078125 -28.972656 18 -28.292969 C 20.316406 -27.472656 22.007812 -26.648438 23.066406 -25.8125 C 24.589844 -24.621094 25.4375 -23.109375 25.621094 -21.28125 C 25.824219 -19.226562 25.238281 -17.550781 23.871094 -16.253906 C 22.742188 -15.183594 21.171875 -14.546875 19.160156 -14.351562 C 16.082031 -14.046875 12.828125 -14.640625 9.40625 -16.132812 C 6.351562 -17.464844 4.144531 -18.566406 2.789062 -19.433594 Z M 2.789062 -19.433594 "/></g></g></g><g fill="#5170ff" fill-opacity="1"><g transform="translate(19.37373, 100.269588)"><g><path d="M 4.578125 -22.234375 C 5.785156 -21.460938 7.835938 -20.445312 10.734375 -19.1875 C 13.628906 -17.925781 16.328125 -17.421875 18.828125 -17.671875 C 21.335938 -17.921875 22.5 -19.015625 22.3125 -20.953125 C 22.21875 -21.847656 21.78125 -22.59375 21 -23.1875 C 20.226562 -23.789062 18.851562 -24.441406 16.875 -25.140625 C 14.90625 -25.835938 13.425781 -26.394531 12.4375 -26.8125 C 11.445312 -27.226562 10.113281 -27.929688 8.4375 -28.921875 C 6.757812 -29.910156 5.445312 -30.984375 4.5 -32.140625 C 1.820312 -35.273438 0.226562 -39.4375 -0.28125 -44.625 C -0.800781 -49.8125 0.6875 -54.375 4.1875 -58.3125 C 7.695312 -62.257812 12.570312 -64.539062 18.8125 -65.15625 C 23.0625 -65.582031 27.03125 -65.515625 30.71875 -64.953125 C 34.414062 -64.398438 36.394531 -63.394531 36.65625 -61.9375 C 36.664062 -61.757812 36.679688 -61.578125 36.703125 -61.390625 C 36.910156 -59.328125 36.519531 -56.65625 35.53125 -53.375 C 34.539062 -50.09375 33.800781 -48.25 33.3125 -47.84375 C 29.34375 -49.414062 25.867188 -50.050781 22.890625 -49.75 C 19.910156 -49.457031 18.523438 -48.253906 18.734375 -46.140625 C 18.867188 -44.847656 20.078125 -43.804688 22.359375 -43.015625 C 22.859375 -42.828125 23.566406 -42.570312 24.484375 -42.25 C 25.410156 -41.925781 26.476562 -41.539062 27.6875 -41.09375 C 28.894531 -40.644531 30.203125 -40.054688 31.609375 -39.328125 C 33.015625 -38.609375 34.554688 -37.613281 36.234375 -36.34375 C 39.648438 -33.707031 41.597656 -29.972656 42.078125 -25.140625 C 42.691406 -18.828125 41.457031 -13.492188 38.375 -9.140625 C 35.289062 -4.796875 30.132812 -2.203125 22.90625 -1.359375 C 19.375 -1.015625 16.144531 -0.992188 13.21875 -1.296875 C 10.289062 -1.609375 7.679688 -2.515625 5.390625 -4.015625 C 3.109375 -5.515625 1.847656 -7.472656 1.609375 -9.890625 C 1.367188 -12.304688 1.570312 -14.753906 2.21875 -17.234375 C 2.875 -19.710938 3.660156 -21.378906 4.578125 -22.234375 Z M 4.578125 -22.234375 "/></g></g></g><g fill="#001780" fill-opacity="1"><g transform="translate(59.51814, 64.674984)"><g><path d="M 4.175781 -24.074219 C 2.546875 -26.707031 1.691406 -28.976562 1.609375 -30.882812 C 1.5 -33.375 2.277344 -35.109375 3.945312 -36.085938 L 4.027344 -36.136719 L 4.113281 -36.179688 C 7.015625 -37.605469 10.945312 -38.425781 15.898438 -38.640625 C 21.269531 -38.871094 25.21875 -37.675781 27.742188 -35.050781 C 30.179688 -32.515625 31.503906 -28.824219 31.714844 -23.972656 L 32.1875 -13.039062 L 29.59375 -12.925781 L 29.480469 -15.523438 L 31.832031 -15.625 C 32.804688 -15.664062 33.6875 -15.414062 34.480469 -14.867188 C 35.144531 -14.410156 35.695312 -13.765625 36.132812 -12.941406 C 36.796875 -11.691406 37.167969 -10.066406 37.253906 -8.058594 C 37.34375 -6.027344 36.929688 -4.019531 36.015625 -2.035156 C 35.472656 -0.851562 34.769531 0.0742188 33.90625 0.75 C 32.941406 1.507812 31.832031 1.914062 30.585938 1.96875 C 27.441406 2.105469 24.828125 1.332031 22.738281 -0.347656 L 24.367188 -2.371094 L 22.832031 -0.277344 C 21.792969 -1.035156 20.976562 -1.980469 20.386719 -3.101562 L 22.6875 -4.308594 L 24.789062 -2.785156 C 22.292969 0.660156 18.390625 2.496094 13.082031 2.726562 C 8.976562 2.902344 5.453125 1.589844 2.507812 -1.21875 C -0.40625 -4 -1.949219 -7.375 -2.121094 -11.34375 C -2.320312 -15.914062 -1.035156 -19.457031 1.730469 -21.980469 C 4.363281 -24.382812 8.238281 -25.691406 13.363281 -25.914062 L 17.171875 -26.078125 L 17.28125 -23.484375 L 14.6875 -23.371094 L 14.65625 -24.0625 C 14.640625 -24.449219 14.605469 -24.726562 14.554688 -24.902344 L 14.550781 -24.914062 C 14.558594 -24.890625 14.574219 -24.863281 14.589844 -24.832031 C 14.671875 -24.695312 14.785156 -24.566406 14.929688 -24.449219 C 15.0625 -24.34375 15.1875 -24.269531 15.308594 -24.226562 L 15.304688 -24.226562 C 15.277344 -24.234375 15.242188 -24.238281 15.195312 -24.246094 C 14.898438 -24.289062 14.472656 -24.296875 13.921875 -24.273438 C 12.363281 -24.207031 10.082031 -23.761719 7.070312 -22.933594 L 5.199219 -22.417969 Z M 8.59375 -26.804688 L 6.382812 -25.4375 L 5.695312 -27.941406 C 9.082031 -28.871094 11.75 -29.378906 13.695312 -29.464844 C 14.574219 -29.503906 15.324219 -29.476562 15.945312 -29.386719 C 16.871094 -29.25 17.625 -28.953125 18.195312 -28.488281 C 19.210938 -27.667969 19.761719 -26.269531 19.847656 -24.289062 L 19.988281 -21.003906 L 13.589844 -20.726562 C 9.71875 -20.558594 6.933594 -19.695312 5.230469 -18.144531 C 3.660156 -16.710938 2.941406 -14.519531 3.070312 -11.570312 C 3.179688 -8.992188 4.1875 -6.792969 6.09375 -4.976562 C 7.972656 -3.1875 10.226562 -2.347656 12.855469 -2.464844 C 16.492188 -2.621094 19.070312 -3.746094 20.585938 -5.835938 L 23.042969 -9.226562 L 24.988281 -5.515625 C 25.203125 -5.105469 25.507812 -4.753906 25.898438 -4.46875 L 25.949219 -4.433594 L 25.996094 -4.394531 C 27.066406 -3.535156 28.519531 -3.140625 30.359375 -3.222656 C 30.496094 -3.226562 30.613281 -3.265625 30.703125 -3.339844 C 30.90625 -3.496094 31.105469 -3.789062 31.296875 -4.210938 C 31.863281 -5.429688 32.117188 -6.640625 32.066406 -7.835938 C 32.011719 -9.058594 31.839844 -9.953125 31.542969 -10.511719 C 31.507812 -10.578125 31.476562 -10.628906 31.453125 -10.65625 C 31.464844 -10.640625 31.492188 -10.617188 31.535156 -10.589844 C 31.695312 -10.476562 31.871094 -10.425781 32.058594 -10.433594 L 27.109375 -10.21875 L 26.523438 -23.746094 C 26.371094 -27.289062 25.53125 -29.859375 24 -31.449219 C 22.558594 -32.949219 19.929688 -33.617188 16.121094 -33.449219 C 11.894531 -33.265625 8.65625 -32.621094 6.402344 -31.515625 L 5.257812 -33.847656 L 6.570312 -31.605469 C 6.722656 -31.695312 6.816406 -31.789062 6.855469 -31.894531 C 6.800781 -31.746094 6.78125 -31.484375 6.796875 -31.105469 C 6.839844 -30.105469 7.441406 -28.671875 8.59375 -26.804688 Z M 15.066406 -13.058594 C 15.074219 -12.851562 15.101562 -12.699219 15.140625 -12.597656 L 15.148438 -12.582031 C 15.136719 -12.59375 15.128906 -12.605469 15.117188 -12.617188 C 15.167969 -12.570312 15.277344 -12.550781 15.433594 -12.558594 C 15.570312 -12.5625 15.726562 -12.664062 15.90625 -12.855469 L 17.820312 -11.101562 L 15.222656 -10.988281 L 14.992188 -16.316406 L 17.589844 -16.425781 L 17.699219 -13.832031 L 15.761719 -13.75 C 15.484375 -13.738281 15.269531 -13.703125 15.117188 -13.644531 C 15.089844 -13.632812 15.070312 -13.625 15.058594 -13.617188 C 15.066406 -13.625 15.078125 -13.632812 15.089844 -13.648438 C 15.105469 -13.664062 15.117188 -13.675781 15.125 -13.691406 C 15.121094 -13.683594 15.117188 -13.671875 15.109375 -13.648438 C 15.070312 -13.511719 15.054688 -13.316406 15.066406 -13.058594 Z M 9.875 -12.835938 C 9.796875 -14.648438 10.273438 -16.101562 11.300781 -17.199219 C 12.3125 -18.28125 13.726562 -18.859375 15.539062 -18.9375 L 20.070312 -19.136719 L 20.460938 -10.136719 L 19.734375 -9.34375 C 18.585938 -8.09375 17.226562 -7.433594 15.660156 -7.367188 C 14.109375 -7.300781 12.785156 -7.75 11.6875 -8.714844 C 10.554688 -9.710938 9.953125 -11.082031 9.875 -12.835938 Z M 9.875 -12.835938 "/></g></g></g><g fill="#5170ff" fill-opacity="1"><g transform="translate(59.51814, 64.674984)"><g><path d="M 6.390625 -25.4375 C 5.003906 -27.675781 4.28125 -29.523438 4.21875 -30.984375 C 4.15625 -32.441406 4.503906 -33.398438 5.265625 -33.859375 C 7.835938 -35.117188 11.414062 -35.847656 16 -36.046875 C 20.59375 -36.242188 23.878906 -35.304688 25.859375 -33.234375 C 27.847656 -31.171875 28.929688 -28.046875 29.109375 -23.859375 L 29.59375 -12.921875 L 31.953125 -13.03125 C 32.734375 -13.0625 33.359375 -12.625 33.828125 -11.71875 C 34.304688 -10.8125 34.582031 -9.550781 34.65625 -7.9375 C 34.726562 -6.332031 34.394531 -4.726562 33.65625 -3.125 C 32.914062 -1.519531 31.851562 -0.6875 30.46875 -0.625 C 27.976562 -0.519531 25.941406 -1.101562 24.359375 -2.375 C 23.648438 -2.894531 23.097656 -3.539062 22.703125 -4.3125 C 20.691406 -1.539062 17.445312 -0.0625 12.96875 0.125 C 9.601562 0.269531 6.710938 -0.804688 4.296875 -3.109375 C 1.890625 -5.410156 0.613281 -8.191406 0.46875 -11.453125 C 0.144531 -18.984375 4.476562 -22.941406 13.46875 -23.328125 L 17.28125 -23.5 L 17.25 -24.1875 C 17.195312 -25.375 16.96875 -26.128906 16.5625 -26.453125 C 16.15625 -26.785156 15.234375 -26.921875 13.796875 -26.859375 C 12.046875 -26.785156 9.578125 -26.3125 6.390625 -25.4375 Z M 12.46875 -12.9375 C 12.507812 -11.925781 12.816406 -11.164062 13.390625 -10.65625 C 13.972656 -10.15625 14.691406 -9.921875 15.546875 -9.953125 C 16.398438 -9.992188 17.15625 -10.375 17.8125 -11.09375 L 17.59375 -16.4375 L 15.65625 -16.34375 C 13.4375 -16.25 12.375 -15.113281 12.46875 -12.9375 Z M 12.46875 -12.9375 "/></g></g></g><g fill="#001780" fill-opacity="1"><g transform="translate(118.215489, 63.062323)"><g><path d="M 30.527344 2.261719 C 27.097656 4 22.867188 4.714844 17.835938 4.402344 C 12.5625 4.074219 8.21875 1.992188 4.804688 -1.84375 C 1.382812 -5.6875 -0.132812 -10.722656 0.253906 -16.949219 C 0.636719 -23.117188 2.675781 -28.023438 6.375 -31.664062 C 10.152344 -35.382812 14.730469 -37.074219 20.109375 -36.742188 C 25.402344 -36.414062 29.464844 -34.75 32.296875 -31.746094 C 35.179688 -28.691406 36.492188 -25.109375 36.238281 -20.996094 C 35.957031 -16.476562 34.375 -13.113281 31.492188 -10.898438 C 28.71875 -8.769531 24.867188 -7.859375 19.933594 -8.164062 L 15.164062 -8.460938 L 15.324219 -11.054688 L 17.917969 -10.894531 C 17.894531 -10.53125 17.914062 -10.265625 17.96875 -10.089844 L 17.972656 -10.074219 C 17.953125 -10.101562 17.929688 -10.125 17.902344 -10.148438 C 18.203125 -9.910156 18.820312 -9.761719 19.753906 -9.703125 C 22.5625 -9.53125 25.277344 -10.007812 27.890625 -11.136719 L 28.921875 -8.753906 L 27.203125 -10.699219 C 27.742188 -11.175781 28.371094 -11.394531 29.09375 -11.347656 C 29.527344 -11.320312 29.933594 -11.195312 30.308594 -10.964844 C 30.570312 -10.800781 30.800781 -10.597656 31.003906 -10.347656 C 31.125 -10.195312 31.246094 -10.015625 31.367188 -9.800781 C 31.492188 -9.570312 31.652344 -9.246094 31.847656 -8.824219 C 33.011719 -6.398438 33.535156 -4.28125 33.425781 -2.472656 C 33.355469 -1.390625 33.097656 -0.457031 32.652344 0.324219 C 32.105469 1.277344 31.328125 1.953125 30.316406 2.359375 L 29.351562 -0.0546875 Z M 28.179688 -2.371094 L 28.28125 -2.421875 L 28.390625 -2.464844 C 28.28125 -2.421875 28.199219 -2.351562 28.144531 -2.261719 C 28.191406 -2.339844 28.222656 -2.515625 28.238281 -2.792969 C 28.296875 -3.703125 27.921875 -4.996094 27.121094 -6.667969 C 26.988281 -6.960938 26.890625 -7.160156 26.832031 -7.265625 C 26.855469 -7.222656 26.902344 -7.160156 26.964844 -7.082031 C 27.136719 -6.871094 27.34375 -6.6875 27.585938 -6.539062 C 27.949219 -6.316406 28.34375 -6.191406 28.769531 -6.164062 C 29.484375 -6.121094 30.105469 -6.335938 30.640625 -6.804688 L 30.332031 -6.53125 L 29.953125 -6.371094 C 26.578125 -4.910156 23.070312 -4.292969 19.429688 -4.519531 C 17.414062 -4.644531 15.828125 -5.164062 14.675781 -6.078125 C 13.238281 -7.21875 12.589844 -8.929688 12.734375 -11.214844 L 12.894531 -13.804688 L 20.253906 -13.351562 C 23.894531 -13.125 26.585938 -13.679688 28.328125 -15.019531 C 29.960938 -16.273438 30.871094 -18.371094 31.054688 -21.320312 C 31.214844 -23.933594 30.371094 -26.21875 28.519531 -28.179688 C 26.625 -30.1875 23.714844 -31.3125 19.789062 -31.558594 C 15.953125 -31.796875 12.695312 -30.597656 10.019531 -27.960938 C 7.265625 -25.25 5.738281 -21.472656 5.4375 -16.628906 C 5.140625 -11.839844 6.222656 -8.0625 8.683594 -5.296875 C 11.148438 -2.527344 14.308594 -1.019531 18.15625 -0.78125 C 22.25 -0.527344 25.589844 -1.058594 28.179688 -2.371094 Z M 19.359375 -20.726562 C 19.371094 -20.933594 19.367188 -21.09375 19.339844 -21.195312 C 19.34375 -21.175781 19.367188 -21.140625 19.410156 -21.089844 C 19.460938 -21.035156 19.5 -21 19.535156 -20.984375 C 19.457031 -21.015625 19.324219 -21.039062 19.136719 -21.050781 C 18.898438 -21.066406 18.707031 -21.019531 18.5625 -20.910156 C 18.574219 -20.921875 18.582031 -20.929688 18.585938 -20.9375 C 18.550781 -20.863281 18.527344 -20.742188 18.519531 -20.570312 L 18.386719 -18.425781 L 15.792969 -18.585938 L 15.953125 -21.179688 L 19.6875 -20.949219 C 19.75 -20.945312 19.800781 -20.945312 19.84375 -20.949219 L 19.84375 -20.945312 C 19.734375 -20.914062 19.628906 -20.851562 19.523438 -20.757812 C 19.429688 -20.671875 19.363281 -20.582031 19.328125 -20.496094 C 19.34375 -20.53125 19.351562 -20.605469 19.359375 -20.726562 Z M 24.542969 -20.402344 C 24.453125 -18.917969 23.945312 -17.757812 23.019531 -16.917969 C 22.074219 -16.054688 20.855469 -15.671875 19.363281 -15.765625 L 13.039062 -16.15625 L 13.332031 -20.890625 C 13.445312 -22.703125 14.148438 -24.09375 15.445312 -25.066406 C 16.609375 -25.9375 17.945312 -26.328125 19.457031 -26.234375 C 21.132812 -26.132812 22.425781 -25.546875 23.347656 -24.480469 C 24.25 -23.433594 24.648438 -22.074219 24.542969 -20.402344 Z M 24.542969 -20.402344 "/></g></g></g><g fill="#5170ff" fill-opacity="1"><g transform="translate(118.215489, 63.062323)"><g><path d="M 29.34375 -0.0625 C 26.34375 1.46875 22.5625 2.085938 18 1.796875 C 13.4375 1.515625 9.679688 -0.273438 6.734375 -3.578125 C 3.796875 -6.878906 2.5 -11.28125 2.84375 -16.78125 C 3.1875 -22.289062 4.972656 -26.632812 8.203125 -29.8125 C 11.429688 -32.988281 15.347656 -34.429688 19.953125 -34.140625 C 24.554688 -33.859375 28.039062 -32.460938 30.40625 -29.953125 C 32.769531 -27.453125 33.847656 -24.519531 33.640625 -21.15625 C 33.171875 -13.695312 28.65625 -10.234375 20.09375 -10.765625 L 15.3125 -11.0625 C 15.226562 -9.675781 15.550781 -8.691406 16.28125 -8.109375 C 17.007812 -7.535156 18.113281 -7.203125 19.59375 -7.109375 C 22.8125 -6.910156 25.925781 -7.460938 28.9375 -8.765625 C 28.976562 -8.804688 29.160156 -8.46875 29.484375 -7.75 C 30.460938 -5.695312 30.910156 -3.992188 30.828125 -2.640625 C 30.742188 -1.285156 30.25 -0.425781 29.34375 -0.0625 Z M 21.953125 -20.5625 C 22.066406 -22.5 21.179688 -23.53125 19.296875 -23.65625 C 18.421875 -23.707031 17.65625 -23.484375 17 -22.984375 C 16.34375 -22.492188 15.984375 -21.738281 15.921875 -20.71875 L 15.78125 -18.59375 L 19.515625 -18.359375 C 21.035156 -18.265625 21.847656 -19 21.953125 -20.5625 Z M 21.953125 -20.5625 "/></g></g></g><g fill="#001780" fill-opacity="1"><g transform="translate(91.615427, 82.520202)"><g><path d="M 6.808594 -26.707031 L 2.835938 -26.707031 C 2.148438 -26.707031 1.511719 -26.894531 0.925781 -27.265625 C 0.480469 -27.546875 0.101562 -27.917969 -0.210938 -28.382812 C -0.578125 -28.921875 -0.855469 -29.605469 -1.039062 -30.425781 C -1.292969 -31.546875 -1.417969 -33.117188 -1.417969 -35.136719 C -1.417969 -37.160156 -1.292969 -38.730469 -1.039062 -39.847656 C -0.855469 -40.671875 -0.578125 -41.355469 -0.210938 -41.894531 C 0.101562 -42.355469 0.480469 -42.730469 0.925781 -43.011719 C 1.511719 -43.382812 2.148438 -43.566406 2.835938 -43.566406 L 6.808594 -43.566406 L 6.808594 -40.527344 L 3.769531 -40.527344 L 3.769531 -42.3125 C 3.769531 -48.933594 5.300781 -53.644531 8.371094 -56.433594 C 11.355469 -59.152344 15.398438 -60.507812 20.507812 -60.507812 C 25.289062 -60.507812 29.53125 -59.628906 33.242188 -57.863281 L 31.9375 -55.117188 L 33.003906 -57.964844 C 34.085938 -57.558594 34.839844 -56.777344 35.269531 -55.621094 C 35.507812 -54.988281 35.625 -54.242188 35.625 -53.375 C 35.625 -51.972656 35.085938 -49.976562 34.015625 -47.386719 C 33.492188 -46.132812 32.992188 -45.117188 32.515625 -44.34375 C 31.824219 -43.21875 31.054688 -42.445312 30.214844 -42.023438 L 28.699219 -41.265625 L 27.257812 -42.15625 C 25.910156 -42.988281 24.550781 -43.40625 23.183594 -43.40625 C 23.109375 -43.40625 23.050781 -43.402344 23.011719 -43.394531 C 23.003906 -43.390625 23 -43.390625 23 -43.390625 C 23.011719 -43.394531 23.019531 -43.398438 23.035156 -43.402344 C 23.121094 -43.441406 23.191406 -43.496094 23.242188 -43.566406 C 23.226562 -43.542969 23.199219 -43.46875 23.167969 -43.335938 C 23.097656 -43.050781 23.0625 -42.683594 23.0625 -42.230469 L 23.0625 -40.527344 L 20.019531 -40.527344 L 20.019531 -43.566406 L 26.75 -43.566406 C 27.933594 -43.566406 28.921875 -43.101562 29.710938 -42.164062 C 30.175781 -41.613281 30.527344 -40.910156 30.769531 -40.054688 C 31.089844 -38.921875 31.246094 -37.347656 31.246094 -35.339844 C 31.246094 -33.125 31.042969 -31.390625 30.628906 -30.136719 C 30.324219 -29.210938 29.890625 -28.460938 29.324219 -27.886719 C 28.496094 -27.046875 27.503906 -26.625 26.34375 -26.625 L 21.15625 -26.625 L 21.15625 -29.667969 L 24.195312 -29.667969 L 24.195312 -0.972656 C 24.195312 -0.0195312 23.84375 0.789062 23.136719 1.460938 C 22.785156 1.792969 22.355469 2.0625 21.851562 2.269531 C 21.316406 2.488281 20.621094 2.652344 19.769531 2.769531 C 18.441406 2.949219 16.511719 3.039062 13.980469 3.039062 C 11.453125 3.039062 9.523438 2.949219 8.195312 2.769531 C 7.34375 2.652344 6.648438 2.488281 6.113281 2.269531 C 5.609375 2.0625 5.179688 1.792969 4.828125 1.460938 C 4.121094 0.789062 3.769531 -0.0195312 3.769531 -0.972656 L 3.769531 -29.746094 L 6.808594 -29.746094 Z M 9.847656 -32.789062 L 9.847656 -0.972656 C 9.847656 -1.761719 9.570312 -2.421875 9.011719 -2.949219 C 8.8125 -3.140625 8.605469 -3.28125 8.402344 -3.363281 C 8.464844 -3.335938 8.667969 -3.300781 9.011719 -3.253906 C 10.070312 -3.113281 11.726562 -3.039062 13.980469 -3.039062 C 16.238281 -3.039062 17.894531 -3.113281 18.953125 -3.253906 C 19.296875 -3.300781 19.5 -3.335938 19.5625 -3.363281 C 19.355469 -3.28125 19.152344 -3.140625 18.949219 -2.949219 C 18.394531 -2.421875 18.117188 -1.761719 18.117188 -0.972656 L 18.117188 -32.707031 L 26.34375 -32.707031 C 25.804688 -32.707031 25.355469 -32.523438 24.996094 -32.15625 C 24.914062 -32.070312 24.851562 -31.996094 24.8125 -31.925781 C 24.820312 -31.9375 24.835938 -31.976562 24.855469 -32.035156 C 25.0625 -32.671875 25.167969 -33.773438 25.167969 -35.339844 C 25.167969 -36.789062 25.085938 -37.8125 24.917969 -38.410156 C 24.902344 -38.464844 24.890625 -38.496094 24.886719 -38.507812 C 24.921875 -38.429688 24.980469 -38.339844 25.0625 -38.242188 C 25.488281 -37.742188 26.050781 -37.488281 26.75 -37.488281 L 16.980469 -37.488281 L 16.980469 -42.230469 C 16.980469 -44.3125 17.449219 -45.972656 18.378906 -47.214844 C 19.515625 -48.726562 21.113281 -49.484375 23.183594 -49.484375 C 25.703125 -49.484375 28.125 -48.765625 30.453125 -47.328125 L 28.855469 -44.742188 L 27.496094 -47.460938 C 27.316406 -47.371094 27.183594 -47.28125 27.105469 -47.195312 C 27.164062 -47.257812 27.242188 -47.371094 27.34375 -47.535156 C 27.648438 -48.03125 28 -48.757812 28.398438 -49.71875 C 29.164062 -51.558594 29.546875 -52.78125 29.546875 -53.375 C 29.546875 -53.488281 29.539062 -53.574219 29.53125 -53.636719 C 29.535156 -53.609375 29.550781 -53.566406 29.574219 -53.5 C 29.789062 -52.925781 30.21875 -52.515625 30.867188 -52.273438 L 30.746094 -52.316406 L 30.632812 -52.375 C 27.746094 -53.742188 24.375 -54.429688 20.507812 -54.429688 C 16.96875 -54.429688 14.285156 -53.597656 12.460938 -51.9375 C 10.71875 -50.351562 9.847656 -47.144531 9.847656 -42.3125 L 9.847656 -37.488281 L 2.835938 -37.488281 C 3.324219 -37.488281 3.769531 -37.617188 4.179688 -37.875 C 4.445312 -38.046875 4.660156 -38.25 4.824219 -38.488281 C 4.878906 -38.574219 4.921875 -38.644531 4.941406 -38.699219 C 4.925781 -38.664062 4.910156 -38.601562 4.890625 -38.511719 C 4.738281 -37.832031 4.660156 -36.710938 4.660156 -35.136719 C 4.660156 -33.566406 4.738281 -32.441406 4.890625 -31.765625 C 4.910156 -31.675781 4.925781 -31.613281 4.941406 -31.574219 C 4.921875 -31.632812 4.878906 -31.703125 4.824219 -31.789062 C 4.660156 -32.027344 4.445312 -32.230469 4.179688 -32.398438 C 3.769531 -32.660156 3.324219 -32.789062 2.835938 -32.789062 Z M 9.847656 -32.789062 "/></g></g></g><g fill="#5170ff" fill-opacity="1"><g transform="translate(91.615427, 82.520202)"><g><path d="M 6.8125 -29.75 L 2.84375 -29.75 C 2.03125 -29.75 1.625 -31.546875 1.625 -35.140625 C 1.625 -38.734375 2.03125 -40.53125 2.84375 -40.53125 L 6.8125 -40.53125 L 6.8125 -42.3125 C 6.8125 -48.039062 8.015625 -52 10.421875 -54.1875 C 12.828125 -56.375 16.191406 -57.46875 20.515625 -57.46875 C 24.835938 -57.46875 28.644531 -56.6875 31.9375 -55.125 C 32.375 -54.957031 32.59375 -54.375 32.59375 -53.375 C 32.59375 -52.375 32.128906 -50.765625 31.203125 -48.546875 C 30.285156 -46.335938 29.503906 -45.070312 28.859375 -44.75 C 27.023438 -45.882812 25.132812 -46.453125 23.1875 -46.453125 C 21.070312 -46.453125 20.015625 -45.046875 20.015625 -42.234375 L 20.015625 -40.53125 L 26.75 -40.53125 C 27.71875 -40.53125 28.203125 -38.800781 28.203125 -35.34375 C 28.203125 -31.5625 27.582031 -29.671875 26.34375 -29.671875 L 21.15625 -29.671875 L 21.15625 -0.96875 C 21.15625 -0.320312 18.765625 0 13.984375 0 C 9.203125 0 6.8125 -0.320312 6.8125 -0.96875 Z M 6.8125 -29.75 "/></g></g></g><g fill="#001780" fill-opacity="1"><g transform="translate(158.661703, 98.916802)"><g><path d="M 7.953125 -24.589844 C 8.96875 -23.847656 10.800781 -22.796875 13.449219 -21.433594 C 15.742188 -20.257812 17.855469 -19.703125 19.792969 -19.769531 C 20.140625 -19.78125 20.414062 -19.816406 20.609375 -19.875 C 20.648438 -19.886719 20.671875 -19.894531 20.683594 -19.902344 C 20.65625 -19.886719 20.621094 -19.863281 20.582031 -19.832031 C 20.449219 -19.71875 20.347656 -19.582031 20.285156 -19.417969 C 20.269531 -19.371094 20.257812 -19.332031 20.25 -19.300781 C 20.253906 -19.316406 20.253906 -19.34375 20.253906 -19.386719 C 20.253906 -19.351562 20.265625 -19.3125 20.289062 -19.269531 C 20.292969 -19.257812 20.296875 -19.253906 20.296875 -19.253906 C 20.277344 -19.273438 20.25 -19.300781 20.214844 -19.332031 C 19.753906 -19.746094 18.726562 -20.292969 17.136719 -20.96875 C 15.160156 -21.8125 13.664062 -22.480469 12.648438 -22.972656 C 11.539062 -23.515625 10.109375 -24.382812 8.367188 -25.570312 C 6.433594 -26.890625 4.917969 -28.316406 3.816406 -29.847656 L 6.523438 -31.792969 L 3.863281 -29.785156 C 0.953125 -33.632812 -0.605469 -38.515625 -0.8125 -44.425781 C -1.03125 -50.605469 1.078125 -55.898438 5.519531 -60.300781 C 9.890625 -64.632812 15.644531 -66.921875 22.789062 -67.175781 C 27.328125 -67.335938 31.554688 -66.992188 35.46875 -66.140625 C 37.644531 -65.671875 39.363281 -65.058594 40.628906 -64.308594 C 42.527344 -63.179688 43.582031 -61.699219 43.796875 -59.871094 L 43.8125 -59.738281 L 43.835938 -59.070312 C 43.921875 -56.5625 43.296875 -53.492188 41.953125 -49.867188 C 41.324219 -48.167969 40.773438 -46.824219 40.300781 -45.835938 C 39.628906 -44.425781 38.929688 -43.460938 38.207031 -42.941406 L 36.613281 -41.796875 L 34.839844 -42.632812 C 31.46875 -44.222656 28.558594 -44.972656 26.109375 -44.886719 C 25.621094 -44.871094 25.226562 -44.820312 24.921875 -44.734375 C 24.828125 -44.710938 24.75 -44.683594 24.691406 -44.65625 L 24.683594 -44.65625 C 24.785156 -44.730469 24.863281 -44.835938 24.917969 -44.964844 C 24.9375 -45.007812 24.945312 -45.046875 24.953125 -45.074219 C 24.949219 -45.058594 24.949219 -45.027344 24.949219 -44.980469 C 24.945312 -45.125 24.914062 -45.261719 24.851562 -45.382812 C 24.835938 -45.417969 24.820312 -45.441406 24.804688 -45.460938 C 24.8125 -45.457031 24.824219 -45.445312 24.839844 -45.425781 C 25.105469 -45.167969 25.59375 -44.890625 26.3125 -44.589844 L 26.363281 -44.570312 L 26.410156 -44.546875 C 26.867188 -44.339844 27.53125 -44.050781 28.40625 -43.679688 C 29.324219 -43.289062 30.382812 -42.828125 31.574219 -42.296875 C 32.867188 -41.722656 34.253906 -40.996094 35.730469 -40.117188 C 37.257812 -39.207031 38.890625 -38.007812 40.625 -36.515625 C 44.605469 -33.015625 46.695312 -28.363281 46.902344 -22.550781 C 47.15625 -15.386719 45.347656 -9.410156 41.476562 -4.613281 C 37.5 0.304688 31.378906 2.980469 23.113281 3.40625 C 19.296875 3.542969 15.832031 3.34375 12.71875 2.816406 C 9.296875 2.234375 6.273438 0.964844 3.652344 -1 C 0.609375 -3.277344 -0.972656 -6.164062 -1.097656 -9.652344 C -1.195312 -12.476562 -0.78125 -15.292969 0.144531 -18.101562 C 1.152344 -21.140625 2.390625 -23.265625 3.867188 -24.480469 L 5.867188 -26.121094 Z M 4.011719 -19.21875 L 5.984375 -21.90625 L 8.097656 -19.332031 C 7.9375 -19.199219 7.738281 -18.914062 7.5 -18.480469 C 7.152344 -17.851562 6.808594 -17.027344 6.472656 -16.007812 C 5.792969 -13.957031 5.492188 -11.917969 5.5625 -9.886719 C 5.613281 -8.523438 6.304688 -7.339844 7.648438 -6.335938 C 9.410156 -5.015625 11.46875 -4.15625 13.832031 -3.753906 C 16.5 -3.300781 19.480469 -3.132812 22.769531 -3.25 C 29.054688 -3.574219 33.5625 -5.425781 36.289062 -8.800781 C 39.121094 -12.304688 40.4375 -16.808594 40.242188 -22.316406 C 40.105469 -26.210938 38.785156 -29.261719 36.28125 -31.460938 C 34.835938 -32.703125 33.515625 -33.679688 32.320312 -34.390625 C 31.070312 -35.136719 29.921875 -35.742188 28.867188 -36.207031 C 27.710938 -36.722656 26.6875 -37.167969 25.804688 -37.542969 C 24.871094 -37.9375 24.152344 -38.25 23.644531 -38.484375 L 25.027344 -41.515625 L 23.746094 -38.441406 C 20.203125 -39.917969 18.386719 -42.019531 18.289062 -44.746094 C 18.253906 -45.769531 18.417969 -46.714844 18.785156 -47.574219 C 19.1875 -48.519531 19.800781 -49.308594 20.628906 -49.941406 C 21.921875 -50.933594 23.667969 -51.46875 25.875 -51.546875 C 29.402344 -51.671875 33.339844 -50.710938 37.683594 -48.660156 L 36.261719 -45.644531 L 34.316406 -48.351562 C 34.152344 -48.230469 34.015625 -48.109375 33.90625 -47.980469 L 33.902344 -47.976562 C 34.003906 -48.136719 34.128906 -48.378906 34.285156 -48.707031 C 34.671875 -49.511719 35.144531 -50.671875 35.703125 -52.183594 C 36.742188 -54.984375 37.230469 -57.203125 37.175781 -58.835938 L 37.15625 -59.371094 L 40.484375 -59.488281 L 37.175781 -59.105469 C 37.207031 -58.839844 37.289062 -58.625 37.425781 -58.453125 L 37.4375 -58.433594 C 37.386719 -58.476562 37.316406 -58.523438 37.226562 -58.578125 C 36.582031 -58.960938 35.527344 -59.3125 34.058594 -59.628906 C 30.6875 -60.359375 27.007812 -60.65625 23.023438 -60.515625 C 17.617188 -60.324219 13.347656 -58.675781 10.210938 -55.566406 C 7.152344 -52.535156 5.695312 -48.898438 5.847656 -44.660156 C 6.003906 -40.152344 7.117188 -36.53125 9.179688 -33.800781 L 9.207031 -33.769531 L 9.226562 -33.738281 C 9.871094 -32.839844 10.839844 -31.953125 12.125 -31.074219 C 13.601562 -30.066406 14.746094 -29.363281 15.566406 -28.964844 C 16.480469 -28.519531 17.875 -27.898438 19.75 -27.097656 C 22.011719 -26.136719 23.644531 -25.203125 24.652344 -24.304688 C 26.09375 -23.019531 26.847656 -21.457031 26.914062 -19.621094 C 26.984375 -17.558594 26.300781 -15.921875 24.851562 -14.714844 C 23.65625 -13.714844 22.046875 -13.179688 20.03125 -13.109375 C 16.9375 -13 13.726562 -13.800781 10.40625 -15.503906 C 7.441406 -17.027344 5.308594 -18.265625 4.011719 -19.21875 Z M 4.011719 -19.21875 "/></g></g></g><g fill="#5170ff" fill-opacity="1"><g transform="translate(158.661703, 98.916802)"><g><path d="M 5.984375 -21.90625 C 7.140625 -21.050781 9.117188 -19.90625 11.921875 -18.46875 C 14.722656 -17.03125 17.382812 -16.351562 19.90625 -16.4375 C 22.425781 -16.53125 23.65625 -17.550781 23.59375 -19.5 C 23.5625 -20.394531 23.175781 -21.164062 22.4375 -21.8125 C 21.695312 -22.46875 20.363281 -23.207031 18.4375 -24.03125 C 16.507812 -24.851562 15.0625 -25.5 14.09375 -25.96875 C 13.132812 -26.445312 11.851562 -27.234375 10.25 -28.328125 C 8.644531 -29.421875 7.40625 -30.578125 6.53125 -31.796875 C 4.039062 -35.085938 2.703125 -39.335938 2.515625 -44.546875 C 2.335938 -49.753906 4.125 -54.21875 7.875 -57.9375 C 11.625 -61.65625 16.632812 -63.625 22.90625 -63.84375 C 27.175781 -63.988281 31.128906 -63.671875 34.765625 -62.890625 C 38.410156 -62.109375 40.316406 -60.976562 40.484375 -59.5 C 40.492188 -59.320312 40.5 -59.140625 40.5 -58.953125 C 40.570312 -56.878906 40.015625 -54.234375 38.828125 -51.015625 C 37.640625 -47.804688 36.785156 -46.019531 36.265625 -45.65625 C 32.410156 -47.46875 28.984375 -48.316406 25.984375 -48.203125 C 22.992188 -48.097656 21.535156 -46.984375 21.609375 -44.859375 C 21.660156 -43.554688 22.800781 -42.441406 25.03125 -41.515625 C 25.507812 -41.285156 26.203125 -40.976562 27.109375 -40.59375 C 28.015625 -40.21875 29.054688 -39.769531 30.234375 -39.25 C 31.410156 -38.738281 32.679688 -38.078125 34.046875 -37.265625 C 35.410156 -36.453125 36.875 -35.363281 38.4375 -34 C 41.6875 -31.144531 43.398438 -27.285156 43.578125 -22.421875 C 43.796875 -16.097656 42.234375 -10.859375 38.890625 -6.703125 C 35.546875 -2.554688 30.226562 -0.296875 22.9375 0.078125 C 19.382812 0.203125 16.160156 0.0195312 13.265625 -0.46875 C 10.378906 -0.957031 7.835938 -2.023438 5.640625 -3.671875 C 3.453125 -5.316406 2.316406 -7.347656 2.234375 -9.765625 C 2.148438 -12.191406 2.507812 -14.617188 3.3125 -17.046875 C 4.125 -19.484375 5.015625 -21.101562 5.984375 -21.90625 Z M 5.984375 -21.90625 "/></g></g></g><g fill="#001780" fill-opacity="1"><g transform="translate(201.566499, 71.942342)"><g><path d="M 16.3125 -17.898438 C 16.382812 -16.21875 16.6875 -15.054688 17.21875 -14.410156 C 17.574219 -13.980469 18.171875 -13.785156 19.019531 -13.820312 C 20.757812 -13.894531 22.148438 -14.273438 23.1875 -14.953125 L 23.785156 -15.34375 L 24.496094 -15.375 C 25.355469 -15.414062 26.128906 -15.136719 26.8125 -14.542969 C 27.222656 -14.1875 27.578125 -13.722656 27.882812 -13.148438 C 28.300781 -12.363281 28.667969 -11.273438 28.988281 -9.871094 C 29.566406 -7.359375 29.875 -5.601562 29.917969 -4.589844 C 29.984375 -3.109375 29.714844 -1.976562 29.117188 -1.191406 L 28.863281 -0.859375 L 28.519531 -0.621094 C 25.730469 1.285156 21.96875 2.339844 17.230469 2.546875 C 12.242188 2.761719 7.921875 1.09375 4.273438 -2.457031 C 0.671875 -5.96875 -1.265625 -10.800781 -1.53125 -16.949219 C -1.796875 -23.0625 -0.335938 -28.121094 2.851562 -32.121094 C 6.125 -36.230469 10.589844 -38.410156 16.246094 -38.65625 C 21.9375 -38.902344 26.058594 -37.578125 28.597656 -34.683594 C 29.4375 -33.746094 29.890625 -32.472656 29.960938 -30.863281 C 30.011719 -29.648438 29.863281 -28.214844 29.511719 -26.554688 C 28.59375 -22.644531 27.050781 -20.265625 24.890625 -19.414062 L 24.785156 -19.375 L 24.675781 -19.34375 C 24.289062 -19.226562 23.816406 -19.15625 23.257812 -19.132812 C 22.152344 -19.085938 21.0625 -19.597656 19.992188 -20.667969 L 21.832031 -22.503906 L 20.074219 -20.589844 C 19.28125 -21.316406 18.601562 -21.839844 18.035156 -22.160156 C 17.828125 -22.277344 17.652344 -22.359375 17.511719 -22.402344 C 17.480469 -22.410156 17.453125 -22.417969 17.4375 -22.421875 C 17.453125 -22.417969 17.472656 -22.417969 17.5 -22.417969 C 17.3125 -22.410156 17.09375 -22.214844 16.839844 -21.824219 C 16.40625 -21.144531 16.226562 -19.835938 16.3125 -17.898438 Z M 11.121094 -17.671875 C 10.992188 -20.714844 11.441406 -23.035156 12.476562 -24.640625 C 13.699219 -26.535156 15.296875 -27.523438 17.277344 -27.609375 C 18.316406 -27.652344 19.417969 -27.34375 20.589844 -26.683594 C 21.503906 -26.167969 22.5 -25.410156 23.585938 -24.417969 L 23.628906 -24.378906 L 23.667969 -24.339844 C 23.777344 -24.230469 23.847656 -24.167969 23.875 -24.148438 C 23.652344 -24.28125 23.375 -24.339844 23.035156 -24.324219 C 23.132812 -24.328125 23.210938 -24.332031 23.265625 -24.339844 L 23.28125 -24.34375 C 23.257812 -24.339844 23.230469 -24.332031 23.199219 -24.320312 L 23.9375 -21.832031 L 22.988281 -24.25 L 22.976562 -24.246094 C 23 -24.257812 23.023438 -24.28125 23.054688 -24.3125 C 23.175781 -24.429688 23.300781 -24.601562 23.433594 -24.832031 C 23.8125 -25.488281 24.144531 -26.421875 24.429688 -27.632812 C 24.691406 -28.863281 24.804688 -29.863281 24.769531 -30.636719 C 24.757812 -30.898438 24.730469 -31.101562 24.683594 -31.246094 C 24.671875 -31.277344 24.667969 -31.292969 24.660156 -31.304688 C 24.671875 -31.285156 24.683594 -31.269531 24.695312 -31.257812 C 23.246094 -32.90625 20.507812 -33.640625 16.46875 -33.464844 C 12.390625 -33.289062 9.207031 -31.761719 6.914062 -28.886719 C 4.535156 -25.898438 3.449219 -21.996094 3.65625 -17.175781 C 3.863281 -12.394531 5.277344 -8.730469 7.898438 -6.179688 C 10.472656 -3.671875 13.511719 -2.492188 17.007812 -2.644531 C 20.753906 -2.804688 23.617188 -3.5625 25.585938 -4.910156 L 27.050781 -2.765625 L 24.988281 -4.339844 C 24.832031 -4.136719 24.742188 -3.964844 24.71875 -3.816406 C 24.738281 -3.929688 24.742188 -4.113281 24.730469 -4.363281 C 24.699219 -5.058594 24.433594 -6.507812 23.925781 -8.710938 C 23.707031 -9.664062 23.496094 -10.335938 23.296875 -10.714844 C 23.277344 -10.746094 23.265625 -10.765625 23.261719 -10.773438 C 23.296875 -10.726562 23.347656 -10.671875 23.414062 -10.617188 C 23.769531 -10.308594 24.207031 -10.164062 24.722656 -10.1875 L 24.609375 -12.78125 L 26.03125 -10.605469 C 24.195312 -9.40625 21.933594 -8.746094 19.242188 -8.632812 C 16.675781 -8.519531 14.664062 -9.34375 13.214844 -11.101562 C 11.941406 -12.640625 11.246094 -14.832031 11.121094 -17.671875 Z M 11.121094 -17.671875 "/></g></g></g><g fill="#5170ff" fill-opacity="1"><g transform="translate(201.566499, 71.942342)"><g><path d="M 13.703125 -17.78125 C 13.898438 -13.257812 15.707031 -11.070312 19.125 -11.21875 C 21.34375 -11.3125 23.171875 -11.832031 24.609375 -12.78125 C 25.296875 -12.800781 25.910156 -11.632812 26.453125 -9.28125 C 26.992188 -6.9375 27.28125 -5.335938 27.3125 -4.484375 C 27.351562 -3.628906 27.265625 -3.054688 27.046875 -2.765625 C 24.671875 -1.140625 21.359375 -0.234375 17.109375 -0.046875 C 12.867188 0.128906 9.191406 -1.289062 6.078125 -4.3125 C 2.972656 -7.34375 1.300781 -11.585938 1.0625 -17.046875 C 0.820312 -22.515625 2.09375 -26.992188 4.875 -30.484375 C 7.65625 -33.984375 11.476562 -35.835938 16.34375 -36.046875 C 21.207031 -36.265625 24.640625 -35.238281 26.640625 -32.96875 C 27.078125 -32.476562 27.316406 -31.734375 27.359375 -30.734375 C 27.398438 -29.742188 27.265625 -28.53125 26.953125 -27.09375 C 26.265625 -24.101562 25.253906 -22.351562 23.921875 -21.84375 C 23.753906 -21.78125 23.5 -21.738281 23.15625 -21.71875 C 22.8125 -21.707031 22.367188 -21.96875 21.828125 -22.5 C 19.953125 -24.226562 18.472656 -25.066406 17.390625 -25.015625 C 16.304688 -24.972656 15.394531 -24.378906 14.65625 -23.234375 C 13.914062 -22.085938 13.597656 -20.269531 13.703125 -17.78125 Z M 13.703125 -17.78125 "/></g></g></g><g fill="#001780" fill-opacity="1"><g transform="translate(226.4715, 76.481102)"><g><path d="M 19.0625 0.3125 C 19.035156 0.882812 18.863281 1.40625 18.539062 1.878906 C 18.320312 2.203125 18.046875 2.476562 17.714844 2.703125 C 17.382812 2.929688 16.992188 3.105469 16.546875 3.230469 C 16.089844 3.355469 15.496094 3.441406 14.765625 3.488281 C 13.59375 3.5625 11.898438 3.550781 9.671875 3.449219 C 7.386719 3.347656 5.640625 3.167969 4.433594 2.910156 C 1.796875 2.347656 0.523438 1.082031 0.613281 -0.890625 L 2.9375 -53.160156 C 2.980469 -54.183594 3.4375 -55.003906 4.304688 -55.613281 C 4.679688 -55.878906 5.128906 -56.082031 5.652344 -56.226562 C 6.25 -56.390625 7.050781 -56.5 8.046875 -56.550781 C 9.722656 -56.636719 11.140625 -56.65625 12.300781 -56.605469 C 14.640625 -56.5 16.4375 -56.285156 17.691406 -55.957031 C 18.554688 -55.730469 19.261719 -55.425781 19.804688 -55.042969 C 20.257812 -54.71875 20.621094 -54.335938 20.890625 -53.890625 C 21.25 -53.292969 21.414062 -52.648438 21.386719 -51.957031 L 20.707031 -36.695312 L 17.84375 -36.824219 L 17.136719 -39.597656 C 20.296875 -40.40625 22.757812 -40.773438 24.515625 -40.695312 C 29.125 -40.488281 32.769531 -39.042969 35.441406 -36.355469 C 38.175781 -33.601562 39.402344 -29.007812 39.117188 -22.574219 L 38.066406 1.082031 C 38.023438 2.050781 37.601562 2.828125 36.800781 3.414062 C 36.46875 3.660156 36.082031 3.851562 35.632812 3.984375 C 35.183594 4.117188 34.601562 4.210938 33.894531 4.257812 C 32.789062 4.335938 31.1875 4.328125 29.09375 4.238281 L 29.046875 4.234375 L 28.996094 4.230469 C 26.6875 4.050781 24.9375 3.863281 23.75 3.675781 C 23.046875 3.5625 22.488281 3.441406 22.074219 3.308594 C 21.691406 3.183594 21.359375 3.03125 21.074219 2.847656 C 20.753906 2.636719 20.484375 2.386719 20.265625 2.089844 C 19.84375 1.523438 19.648438 0.886719 19.679688 0.1875 L 20.675781 -22.246094 C 20.695312 -22.664062 20.679688 -23.007812 20.632812 -23.277344 C 20.621094 -23.363281 20.601562 -23.433594 20.585938 -23.488281 L 20.585938 -23.492188 C 20.65625 -23.375 20.761719 -23.277344 20.90625 -23.195312 C 21.007812 -23.136719 21.082031 -23.109375 21.136719 -23.105469 C 20.632812 -23.128906 19.878906 -22.808594 18.875 -22.144531 L 17.300781 -24.539062 L 20.160156 -24.410156 Z M 13.339844 0.0585938 L 14.503906 -26.125 L 15.722656 -26.929688 C 17.761719 -28.273438 19.652344 -28.90625 21.390625 -28.828125 C 22.253906 -28.789062 23.035156 -28.574219 23.734375 -28.175781 C 24.472656 -27.757812 25.070312 -27.167969 25.515625 -26.410156 C 26.1875 -25.277344 26.480469 -23.808594 26.398438 -21.992188 L 25.402344 0.441406 C 25.429688 -0.214844 25.25 -0.804688 24.863281 -1.328125 C 24.675781 -1.578125 24.457031 -1.789062 24.203125 -1.953125 C 24.058594 -2.046875 23.929688 -2.113281 23.824219 -2.148438 C 23.960938 -2.101562 24.234375 -2.046875 24.648438 -1.984375 C 25.6875 -1.816406 27.285156 -1.648438 29.445312 -1.480469 L 29.222656 1.375 L 29.347656 -1.488281 C 31.222656 -1.402344 32.605469 -1.394531 33.492188 -1.457031 C 33.78125 -1.476562 33.953125 -1.492188 34.003906 -1.507812 C 33.808594 -1.453125 33.609375 -1.347656 33.40625 -1.195312 C 32.734375 -0.703125 32.378906 -0.0273438 32.34375 0.824219 L 33.394531 -22.828125 C 33.503906 -25.351562 33.355469 -27.453125 32.949219 -29.125 C 32.597656 -30.550781 32.074219 -31.613281 31.375 -32.316406 C 29.753906 -33.945312 27.382812 -34.832031 24.261719 -34.96875 C 23.070312 -35.023438 21.167969 -34.714844 18.554688 -34.046875 L 14.8125 -33.089844 L 15.660156 -52.210938 C 15.640625 -51.75 15.75 -51.320312 15.984375 -50.929688 C 16.128906 -50.691406 16.300781 -50.503906 16.496094 -50.363281 C 16.53125 -50.339844 16.566406 -50.316406 16.59375 -50.300781 L 16.578125 -50.308594 C 16.496094 -50.34375 16.386719 -50.375 16.242188 -50.414062 C 15.378906 -50.640625 13.980469 -50.792969 12.046875 -50.882812 C 11.070312 -50.925781 9.835938 -50.90625 8.347656 -50.828125 C 7.761719 -50.800781 7.367188 -50.757812 7.167969 -50.699219 C 7.289062 -50.734375 7.4375 -50.8125 7.609375 -50.933594 C 7.851562 -51.105469 8.0625 -51.324219 8.234375 -51.585938 C 8.496094 -51.984375 8.636719 -52.425781 8.660156 -52.90625 L 6.335938 -0.636719 C 6.363281 -1.25 6.191406 -1.792969 5.824219 -2.265625 C 5.648438 -2.492188 5.457031 -2.660156 5.25 -2.777344 C 5.222656 -2.792969 5.199219 -2.804688 5.179688 -2.8125 C 5.191406 -2.808594 5.210938 -2.800781 5.234375 -2.792969 C 5.335938 -2.761719 5.464844 -2.726562 5.628906 -2.691406 C 6.527344 -2.5 7.960938 -2.359375 9.925781 -2.273438 C 11.945312 -2.183594 13.441406 -2.167969 14.40625 -2.230469 C 14.742188 -2.25 14.949219 -2.273438 15.03125 -2.292969 C 14.855469 -2.246094 14.667969 -2.15625 14.472656 -2.019531 C 14.210938 -1.839844 13.988281 -1.617188 13.804688 -1.347656 C 13.515625 -0.925781 13.363281 -0.457031 13.339844 0.0585938 Z M 13.339844 0.0585938 "/></g></g></g><g fill="#5170ff" fill-opacity="1"><g transform="translate(226.4715, 76.481102)"><g><path d="M 16.203125 0.1875 C 16.179688 0.644531 14.046875 0.78125 9.796875 0.59375 C 5.554688 0.40625 3.453125 -0.046875 3.484375 -0.765625 L 5.796875 -53.03125 C 5.816406 -53.382812 6.613281 -53.601562 8.1875 -53.6875 C 9.769531 -53.769531 11.097656 -53.785156 12.171875 -53.734375 C 16.441406 -53.546875 18.554688 -52.992188 18.515625 -52.078125 L 17.84375 -36.828125 C 20.726562 -37.566406 22.910156 -37.90625 24.390625 -37.84375 C 28.242188 -37.664062 31.242188 -36.492188 33.390625 -34.328125 C 35.546875 -32.171875 36.5 -28.289062 36.25 -22.6875 L 35.203125 0.953125 C 35.179688 1.410156 33.1875 1.550781 29.21875 1.375 C 24.75 1.019531 22.523438 0.664062 22.546875 0.3125 L 23.546875 -22.125 C 23.648438 -24.613281 22.890625 -25.894531 21.265625 -25.96875 C 20.140625 -26.019531 18.816406 -25.539062 17.296875 -24.53125 Z M 16.203125 0.1875 "/></g></g></g><g fill="#001780" fill-opacity="1"><g transform="translate(263.347225, 80.947078)"><g><path d="M 4.097656 -2.523438 C 0.609375 -6.054688 -1.273438 -10.96875 -1.546875 -17.261719 C -1.816406 -23.554688 -0.367188 -28.613281 2.804688 -32.4375 C 6.039062 -36.332031 10.484375 -38.40625 16.140625 -38.652344 C 21.800781 -38.894531 26.398438 -37.214844 29.9375 -33.601562 C 33.398438 -30.070312 35.265625 -25.160156 35.539062 -18.867188 C 35.8125 -12.578125 34.375 -7.523438 31.234375 -3.703125 C 28.019531 0.199219 23.585938 2.269531 17.921875 2.515625 C 12.265625 2.761719 7.660156 1.082031 4.097656 -2.523438 Z M 7.792969 -6.171875 C 10.273438 -3.660156 13.578125 -2.496094 17.699219 -2.671875 C 21.816406 -2.851562 24.992188 -4.296875 27.222656 -7.007812 C 29.523438 -9.800781 30.566406 -13.679688 30.351562 -18.644531 C 30.136719 -23.609375 28.761719 -27.382812 26.226562 -29.96875 C 23.769531 -32.476562 20.484375 -33.640625 16.363281 -33.460938 C 12.242188 -33.28125 9.054688 -31.835938 6.800781 -29.117188 C 4.480469 -26.324219 3.429688 -22.449219 3.644531 -17.488281 C 3.859375 -12.527344 5.242188 -8.753906 7.792969 -6.171875 Z M 16.898438 -21.910156 C 16.6875 -21.898438 16.53125 -21.863281 16.429688 -21.804688 C 16.351562 -21.757812 16.273438 -21.664062 16.195312 -21.523438 C 15.828125 -20.859375 15.679688 -19.714844 15.75 -18.082031 C 15.820312 -16.449219 16.066406 -15.316406 16.492188 -14.691406 C 16.582031 -14.558594 16.667969 -14.472656 16.75 -14.429688 C 16.855469 -14.378906 17.015625 -14.359375 17.226562 -14.367188 C 17.4375 -14.375 17.59375 -14.410156 17.695312 -14.472656 C 17.777344 -14.519531 17.855469 -14.613281 17.933594 -14.753906 C 18.300781 -15.414062 18.449219 -16.5625 18.378906 -18.195312 C 18.308594 -19.828125 18.058594 -20.957031 17.636719 -21.585938 C 17.546875 -21.71875 17.460938 -21.804688 17.375 -21.84375 C 17.269531 -21.894531 17.113281 -21.917969 16.898438 -21.910156 Z M 16.675781 -27.097656 C 17.765625 -27.144531 18.757812 -26.949219 19.65625 -26.511719 C 20.570312 -26.066406 21.332031 -25.390625 21.941406 -24.492188 C 22.914062 -23.054688 23.453125 -21.03125 23.566406 -18.417969 C 23.679688 -15.808594 23.316406 -13.746094 22.472656 -12.230469 C 21.945312 -11.28125 21.242188 -10.542969 20.367188 -10.015625 C 19.515625 -9.503906 18.542969 -9.226562 17.453125 -9.175781 C 16.359375 -9.128906 15.367188 -9.324219 14.472656 -9.761719 C 13.554688 -10.210938 12.792969 -10.882812 12.1875 -11.78125 C 11.214844 -13.222656 10.671875 -15.246094 10.558594 -17.855469 C 10.445312 -20.464844 10.8125 -22.53125 11.65625 -24.046875 C 12.183594 -24.996094 12.882812 -25.734375 13.757812 -26.257812 C 14.613281 -26.769531 15.585938 -27.050781 16.675781 -27.097656 Z M 16.675781 -27.097656 "/></g></g></g><g fill="#5170ff" fill-opacity="1"><g transform="translate(263.347225, 80.947078)"><g><path d="M 5.9375 -4.34375 C 2.914062 -7.394531 1.285156 -11.734375 1.046875 -17.359375 C 0.804688 -22.992188 2.054688 -27.460938 4.796875 -30.765625 C 7.535156 -34.078125 11.347656 -35.835938 16.234375 -36.046875 C 21.128906 -36.265625 25.078125 -34.84375 28.078125 -31.78125 C 31.078125 -28.71875 32.695312 -24.367188 32.9375 -18.734375 C 33.175781 -13.109375 31.9375 -8.644531 29.21875 -5.34375 C 26.5 -2.050781 22.691406 -0.296875 17.796875 -0.078125 C 12.910156 0.128906 8.957031 -1.289062 5.9375 -4.34375 Z M 16.78125 -24.5 C 14.175781 -24.394531 12.960938 -22.21875 13.140625 -17.96875 C 13.328125 -13.726562 14.722656 -11.660156 17.328125 -11.765625 C 19.941406 -11.878906 21.15625 -14.054688 20.96875 -18.296875 C 20.789062 -22.546875 19.394531 -24.613281 16.78125 -24.5 Z M 16.78125 -24.5 "/></g></g></g><g fill="#001780" fill-opacity="1"><g transform="translate(290.424527, 75.497328)"><g><path d="M 4.457031 -1.816406 C 1.589844 -5.875 0.539062 -11.027344 1.300781 -17.28125 C 2.0625 -23.535156 4.320312 -28.289062 8.074219 -31.539062 C 11.902344 -34.855469 16.628906 -36.171875 22.25 -35.488281 C 27.875 -34.800781 32.136719 -32.390625 35.035156 -28.25 C 37.871094 -24.199219 38.910156 -19.046875 38.148438 -12.796875 C 37.386719 -6.546875 35.144531 -1.796875 31.417969 1.457031 C 27.609375 4.78125 22.894531 6.101562 17.269531 5.417969 C 11.648438 4.730469 7.378906 2.320312 4.457031 -1.816406 Z M 8.699219 -4.8125 C 10.734375 -1.929688 13.800781 -0.238281 17.898438 0.261719 C 21.988281 0.757812 25.359375 -0.148438 28.003906 -2.457031 C 30.730469 -4.835938 32.390625 -8.492188 32.992188 -13.425781 C 33.59375 -18.355469 32.855469 -22.304688 30.78125 -25.269531 C 28.765625 -28.144531 25.714844 -29.832031 21.621094 -30.332031 C 17.527344 -30.828125 14.144531 -29.921875 11.476562 -27.613281 C 8.730469 -25.234375 7.058594 -21.582031 6.457031 -16.65625 C 5.859375 -11.726562 6.605469 -7.777344 8.699219 -4.8125 Z M 20.257812 -18.847656 C 20.046875 -18.871094 19.886719 -18.863281 19.777344 -18.820312 C 19.691406 -18.785156 19.597656 -18.707031 19.5 -18.582031 C 19.027344 -17.988281 18.695312 -16.882812 18.496094 -15.257812 C 18.300781 -13.636719 18.359375 -12.480469 18.671875 -11.792969 C 18.738281 -11.648438 18.8125 -11.546875 18.886719 -11.492188 C 18.980469 -11.425781 19.136719 -11.378906 19.347656 -11.355469 C 19.558594 -11.328125 19.71875 -11.335938 19.824219 -11.378906 C 19.914062 -11.414062 20.003906 -11.492188 20.105469 -11.617188 C 20.578125 -12.210938 20.910156 -13.320312 21.109375 -14.941406 C 21.304688 -16.5625 21.246094 -17.71875 20.933594 -18.40625 C 20.863281 -18.550781 20.792969 -18.652344 20.71875 -18.707031 C 20.621094 -18.773438 20.46875 -18.820312 20.257812 -18.847656 Z M 20.886719 -24.003906 C 21.96875 -23.871094 22.917969 -23.515625 23.730469 -22.9375 C 24.558594 -22.347656 25.203125 -21.558594 25.652344 -20.570312 C 26.375 -18.992188 26.582031 -16.90625 26.265625 -14.3125 C 25.949219 -11.71875 25.25 -9.742188 24.171875 -8.386719 C 23.496094 -7.535156 22.683594 -6.921875 21.734375 -6.546875 C 20.808594 -6.183594 19.800781 -6.066406 18.71875 -6.195312 C 17.636719 -6.328125 16.6875 -6.683594 15.875 -7.261719 C 15.042969 -7.851562 14.402344 -8.640625 13.949219 -9.628906 C 13.226562 -11.207031 13.023438 -13.292969 13.339844 -15.886719 C 13.65625 -18.480469 14.355469 -20.457031 15.433594 -21.816406 C 16.109375 -22.664062 16.921875 -23.277344 17.871094 -23.652344 C 18.796875 -24.019531 19.800781 -24.132812 20.886719 -24.003906 Z M 20.886719 -24.003906 "/></g></g></g><g fill="#5170ff" fill-opacity="1"><g transform="translate(290.424527, 75.497328)"><g><path d="M 6.578125 -3.3125 C 4.097656 -6.820312 3.195312 -11.375 3.875 -16.96875 C 4.550781 -22.5625 6.515625 -26.757812 9.765625 -29.5625 C 13.015625 -32.375 17.066406 -33.484375 21.921875 -32.890625 C 26.785156 -32.304688 30.441406 -30.257812 32.890625 -26.75 C 35.347656 -23.25 36.238281 -18.703125 35.5625 -13.109375 C 34.882812 -7.515625 32.929688 -3.3125 29.703125 -0.5 C 26.484375 2.3125 22.441406 3.421875 17.578125 2.828125 C 12.722656 2.242188 9.054688 0.195312 6.578125 -3.3125 Z M 20.578125 -21.421875 C 17.984375 -21.734375 16.425781 -19.78125 15.90625 -15.5625 C 15.394531 -11.351562 16.4375 -9.09375 19.03125 -8.78125 C 21.625 -8.46875 23.175781 -10.414062 23.6875 -14.625 C 24.207031 -18.84375 23.171875 -21.109375 20.578125 -21.421875 Z M 20.578125 -21.421875 "/></g></g></g><g fill="#001780" fill-opacity="1"><g transform="translate(319.325769, 81.127576)"><g><path d="M 20.0625 2.453125 C 19.960938 3.113281 19.667969 3.679688 19.1875 4.152344 C 18.90625 4.421875 18.578125 4.640625 18.207031 4.796875 C 17.855469 4.945312 17.457031 5.042969 17.007812 5.089844 C 16.511719 5.144531 15.859375 5.144531 15.042969 5.09375 C 13.660156 5.003906 11.644531 4.757812 8.992188 4.351562 C 6.878906 4 5.285156 3.6875 4.210938 3.414062 C 3.558594 3.246094 3.039062 3.074219 2.652344 2.902344 C 2.277344 2.734375 1.953125 2.535156 1.683594 2.300781 C 1.390625 2.046875 1.152344 1.753906 0.972656 1.417969 C 0.65625 0.832031 0.546875 0.210938 0.648438 -0.441406 L 8.519531 -51.859375 C 8.824219 -53.851562 10.421875 -54.851562 13.308594 -54.859375 C 14.703125 -54.859375 16.695312 -54.664062 19.28125 -54.265625 L 19.332031 -54.257812 L 19.378906 -54.25 C 21.585938 -53.832031 23.25 -53.46875 24.375 -53.15625 C 25.046875 -52.972656 25.578125 -52.789062 25.972656 -52.613281 C 26.339844 -52.445312 26.65625 -52.25 26.917969 -52.03125 C 27.207031 -51.785156 27.445312 -51.5 27.628906 -51.175781 C 27.964844 -50.578125 28.085938 -49.941406 27.980469 -49.265625 Z M 14.398438 1.585938 L 22.316406 -50.132812 C 22.222656 -49.5 22.328125 -48.90625 22.640625 -48.355469 C 22.796875 -48.082031 22.988281 -47.847656 23.222656 -47.652344 C 23.363281 -47.53125 23.488281 -47.449219 23.597656 -47.398438 C 23.480469 -47.453125 23.230469 -47.53125 22.851562 -47.636719 C 21.878906 -47.902344 20.363281 -48.234375 18.3125 -48.621094 L 18.847656 -51.433594 L 18.414062 -48.605469 C 16.117188 -48.957031 14.417969 -49.128906 13.316406 -49.128906 C 12.960938 -49.128906 12.75 -49.117188 12.683594 -49.097656 C 12.882812 -49.15625 13.085938 -49.269531 13.292969 -49.433594 C 13.785156 -49.828125 14.082031 -50.347656 14.183594 -50.992188 L 6.308594 0.425781 C 6.402344 -0.183594 6.304688 -0.761719 6.011719 -1.300781 C 5.859375 -1.585938 5.660156 -1.835938 5.421875 -2.039062 C 5.265625 -2.171875 5.121094 -2.269531 4.988281 -2.328125 C 5.082031 -2.289062 5.296875 -2.222656 5.636719 -2.136719 C 6.546875 -1.902344 7.957031 -1.628906 9.859375 -1.3125 C 12.34375 -0.929688 14.195312 -0.703125 15.410156 -0.625 C 15.898438 -0.59375 16.226562 -0.585938 16.398438 -0.605469 C 16.285156 -0.59375 16.140625 -0.550781 15.96875 -0.476562 C 15.683594 -0.355469 15.421875 -0.179688 15.191406 0.046875 C 14.757812 0.46875 14.492188 0.980469 14.398438 1.585938 Z M 14.398438 1.585938 "/></g></g></g><g fill="#5170ff" fill-opacity="1"><g transform="translate(319.325769, 81.127576)"><g><path d="M 17.234375 2.015625 C 17.160156 2.472656 14.554688 2.304688 9.421875 1.515625 C 5.398438 0.847656 3.414062 0.335938 3.46875 -0.015625 L 11.34375 -51.421875 C 11.457031 -52.171875 13.957031 -52.171875 18.84375 -51.421875 C 23.101562 -50.628906 25.207031 -50.050781 25.15625 -49.6875 Z M 17.234375 2.015625 "/></g></g></g><g clip-path="url(#daab462739)"><g clip-path="url(#c20a7e97dc)"><g transform="matrix(1, 0, 0, 1, 0, 18)"><g clip-path="url(#c0238a0c3b)"><g clip-path="url(#de2015430b)"><g clip-path="url(#270bee2e58)"><g clip-path="url(#704b99c8f3)"><path fill="#001780" d="M 17.5625 19.058594 C 16.5625 17.011719 15.566406 14.964844 14.570312 12.917969 C 14.320312 12.40625 14.078125 11.902344 13.863281 11.375 C 13.652344 10.851562 13.441406 10.324219 13.230469 9.800781 C 12.808594 8.742188 12.382812 7.683594 11.957031 6.625 C 11.746094 6.097656 11.535156 5.574219 11.324219 5.046875 C 11.21875 4.78125 11.105469 4.515625 11.003906 4.25 C 10.835938 3.800781 10.738281 3.292969 10.929688 2.832031 C 10.949219 2.789062 10.96875 2.746094 10.988281 2.703125 C 11.035156 2.601562 11.082031 2.496094 11.128906 2.394531 C 11.167969 2.308594 11.207031 2.230469 11.25 2.148438 C 11.398438 1.867188 11.609375 1.683594 11.914062 1.582031 C 12.230469 1.480469 12.535156 1.53125 12.835938 1.652344 C 12.917969 1.6875 13.003906 1.71875 13.085938 1.753906 C 13.261719 1.824219 13.441406 1.890625 13.589844 2.003906 C 13.863281 2.214844 14.09375 2.488281 14.222656 2.808594 C 14.433594 3.332031 14.644531 3.859375 14.855469 4.382812 C 15.28125 5.441406 15.707031 6.5 16.132812 7.558594 C 16.601562 8.730469 17.113281 9.898438 17.5 11.101562 C 18.183594 13.238281 18.871094 15.378906 19.558594 17.515625 C 19.644531 17.785156 19.730469 18.058594 19.820312 18.328125 C 19.902344 18.589844 19.785156 19.023438 19.621094 19.234375 C 19.457031 19.445312 19.261719 19.59375 19.007812 19.675781 C 18.445312 19.859375 17.824219 19.597656 17.5625 19.058594 Z M 17.5625 19.058594 " fill-opacity="1" fill-rule="nonzero"/></g></g></g><g clip-path="url(#8e4bf2afa6)"><g clip-path="url(#f887d04360)"><g clip-path="url(#99ecaa0ede)"><path fill="#001780" d="M 11.085938 23.625 C 8.808594 21.277344 6.535156 18.929688 4.257812 16.582031 C 3.96875 16.285156 3.679688 15.988281 3.394531 15.695312 C 3.257812 15.550781 3.113281 15.414062 2.980469 15.269531 C 2.703125 14.964844 2.566406 14.585938 2.445312 14.203125 C 2.328125 13.839844 2.320312 13.480469 2.453125 13.117188 C 2.550781 12.84375 2.71875 12.605469 2.9375 12.417969 C 3.40625 12.023438 4.023438 11.949219 4.59375 12.132812 C 4.78125 12.191406 5.015625 12.355469 5.207031 12.457031 C 5.425781 12.574219 5.59375 12.726562 5.761719 12.925781 C 6.027344 13.238281 6.285156 13.566406 6.542969 13.882812 C 7.574219 15.148438 8.601562 16.414062 9.628906 17.683594 C 10.785156 19.101562 11.9375 20.519531 13.089844 21.9375 C 13.304688 22.203125 13.421875 22.554688 13.394531 22.894531 C 13.367188 23.214844 13.191406 23.585938 12.933594 23.785156 C 12.675781 23.984375 12.324219 24.132812 11.976562 24.085938 C 11.628906 24.042969 11.339844 23.886719 11.085938 23.625 Z M 11.085938 23.625 " fill-opacity="1" fill-rule="nonzero"/></g></g></g><g clip-path="url(#8499f8e93d)"><g clip-path="url(#9519044654)"><g clip-path="url(#133836a010)"><path fill="#001780" d="M 11.136719 29.5 C 10.9375 29.59375 10.742188 29.699219 10.527344 29.742188 C 10.285156 29.789062 10.035156 29.753906 9.792969 29.738281 C 9.492188 29.71875 9.191406 29.703125 8.890625 29.695312 C 8.292969 29.679688 7.699219 29.6875 7.101562 29.714844 L 7.507812 29.695312 C 6.757812 29.730469 6.007812 29.804688 5.265625 29.910156 C 4.890625 29.964844 4.519531 30.046875 4.144531 30.078125 C 3.769531 30.113281 3.390625 30.15625 3.015625 30.207031 C 2.578125 30.265625 2.128906 30.191406 1.761719 29.933594 C 1.4375 29.703125 1.144531 29.285156 1.089844 28.882812 C 1.027344 28.453125 1.089844 27.984375 1.363281 27.628906 C 1.636719 27.277344 1.976562 27.054688 2.410156 26.957031 C 2.671875 26.898438 2.933594 26.847656 3.195312 26.796875 C 3.320312 26.773438 3.449219 26.75 3.574219 26.726562 C 3.84375 26.683594 4.117188 26.679688 4.390625 26.667969 C 4.917969 26.644531 5.445312 26.632812 5.976562 26.644531 C 7.039062 26.667969 8.101562 26.761719 9.152344 26.925781 C 9.441406 26.972656 9.730469 27.023438 10.019531 27.082031 C 10.359375 27.148438 10.726562 27.1875 11.019531 27.386719 C 11.1875 27.503906 11.347656 27.679688 11.5 27.824219 C 11.742188 28.058594 11.785156 28.453125 11.71875 28.757812 C 11.644531 29.085938 11.445312 29.355469 11.136719 29.5 Z M 11.136719 29.5 " fill-opacity="1" fill-rule="nonzero"/></g></g></g></g></g></g></g><g clip-path="url(#a1b822bb25)"><g clip-path="url(#4d052d5366)"><g transform="matrix(1, 0, 0, 1, 336, 78)"><g clip-path="url(#a056f2770b)"><g clip-path="url(#fbd752fbcf)"><g clip-path="url(#11479d9aaf)"><g clip-path="url(#f8ef00b8ee)"><path fill="#001780" d="M 4.058594 13.425781 C 5.058594 15.472656 6.054688 17.519531 7.054688 19.566406 C 7.300781 20.078125 7.546875 20.582031 7.757812 21.109375 C 7.96875 21.632812 8.179688 22.160156 8.390625 22.683594 C 8.816406 23.742188 9.242188 24.800781 9.664062 25.859375 C 9.875 26.386719 10.085938 26.910156 10.296875 27.4375 C 10.40625 27.703125 10.515625 27.96875 10.617188 28.238281 C 10.789062 28.683594 10.886719 29.191406 10.691406 29.652344 C 10.671875 29.695312 10.652344 29.738281 10.632812 29.78125 C 10.585938 29.882812 10.539062 29.988281 10.492188 30.089844 C 10.453125 30.175781 10.414062 30.253906 10.371094 30.335938 C 10.222656 30.617188 10.011719 30.804688 9.707031 30.902344 C 9.390625 31.003906 9.089844 30.953125 8.789062 30.832031 C 8.703125 30.796875 8.621094 30.765625 8.535156 30.730469 C 8.363281 30.660156 8.183594 30.59375 8.03125 30.480469 C 7.761719 30.269531 7.527344 29.996094 7.398438 29.675781 C 7.1875 29.152344 6.976562 28.625 6.765625 28.101562 C 6.339844 27.042969 5.914062 25.984375 5.492188 24.925781 C 5.019531 23.753906 4.511719 22.589844 4.125 21.382812 C 3.4375 19.246094 2.75 17.105469 2.0625 14.96875 C 1.976562 14.699219 1.890625 14.425781 1.804688 14.15625 C 1.71875 13.894531 1.839844 13.460938 2.003906 13.25 C 2.164062 13.039062 2.363281 12.890625 2.613281 12.808594 C 3.179688 12.628906 3.796875 12.886719 4.058594 13.425781 Z M 4.058594 13.425781 " fill-opacity="1" fill-rule="nonzero"/></g></g></g><g clip-path="url(#a38ad41802)"><g clip-path="url(#0c8dc88ea2)"><g clip-path="url(#0b2b48c634)"><path fill="#001780" d="M 10.535156 8.859375 C 12.8125 11.207031 15.089844 13.554688 17.367188 15.902344 C 17.652344 16.199219 17.941406 16.496094 18.230469 16.792969 C 18.367188 16.933594 18.507812 17.070312 18.640625 17.214844 C 18.917969 17.523438 19.054688 17.898438 19.179688 18.28125 C 19.296875 18.644531 19.304688 19.003906 19.167969 19.367188 C 19.070312 19.640625 18.90625 19.878906 18.683594 20.066406 C 18.214844 20.460938 17.597656 20.535156 17.03125 20.351562 C 16.84375 20.292969 16.605469 20.128906 16.414062 20.027344 C 16.195312 19.910156 16.027344 19.757812 15.859375 19.558594 C 15.59375 19.246094 15.339844 18.921875 15.078125 18.601562 C 14.050781 17.335938 13.019531 16.070312 11.992188 14.804688 C 10.839844 13.382812 9.683594 11.964844 8.53125 10.546875 C 8.316406 10.28125 8.199219 9.929688 8.226562 9.589844 C 8.253906 9.269531 8.429688 8.898438 8.691406 8.699219 C 8.949219 8.5 9.300781 8.351562 9.644531 8.398438 C 9.992188 8.441406 10.285156 8.597656 10.535156 8.859375 Z M 10.535156 8.859375 " fill-opacity="1" fill-rule="nonzero"/></g></g></g><g clip-path="url(#0412438e8c)"><g clip-path="url(#b7f727a3fc)"><g clip-path="url(#b5678952cc)"><path fill="#001780" d="M 10.488281 2.984375 C 10.683594 2.890625 10.878906 2.785156 11.097656 2.742188 C 11.335938 2.695312 11.589844 2.730469 11.832031 2.746094 C 12.132812 2.765625 12.433594 2.78125 12.734375 2.789062 C 13.328125 2.804688 13.925781 2.796875 14.519531 2.769531 L 14.117188 2.789062 C 14.867188 2.753906 15.613281 2.679688 16.359375 2.574219 C 16.730469 2.519531 17.101562 2.4375 17.476562 2.40625 C 17.851562 2.371094 18.230469 2.328125 18.609375 2.277344 C 19.042969 2.21875 19.496094 2.292969 19.863281 2.550781 C 20.1875 2.78125 20.476562 3.199219 20.535156 3.601562 C 20.59375 4.03125 20.53125 4.5 20.257812 4.855469 C 19.984375 5.207031 19.644531 5.429688 19.210938 5.527344 C 18.949219 5.585938 18.6875 5.640625 18.425781 5.6875 C 18.300781 5.710938 18.175781 5.734375 18.046875 5.757812 C 17.777344 5.800781 17.503906 5.804688 17.234375 5.816406 C 16.703125 5.84375 16.175781 5.851562 15.648438 5.839844 C 14.582031 5.820312 13.519531 5.722656 12.46875 5.558594 C 12.179688 5.511719 11.890625 5.460938 11.601562 5.402344 C 11.261719 5.335938 10.894531 5.296875 10.601562 5.097656 C 10.433594 4.980469 10.277344 4.804688 10.125 4.660156 C 9.882812 4.425781 9.835938 4.035156 9.90625 3.726562 C 9.976562 3.398438 10.179688 3.128906 10.488281 2.984375 Z M 10.488281 2.984375 " fill-opacity="1" fill-rule="nonzero"/></g></g></g></g></g></g></g></g></g></svg>